<svg xmlns="http://www.w3.org/2000/svg" width="32.729" height="31.66" viewBox="0 0 32.729 31.66">
  <g id="Child" transform="translate(0)">
    <g id="Group_14227" data-name="Group 14227" transform="translate(19.623 3.61)">
      <g id="Group_14210" data-name="Group 14210" transform="translate(3.75 18.497)">
        <g id="Group_14208" data-name="Group 14208" transform="translate(0 0.455)">
          <rect id="Rectangle_4006" data-name="Rectangle 4006" width="0.687" height="5.961" transform="translate(3.302)" fill="#eeeff4"/>
          <g id="Group_14197" data-name="Group 14197" transform="translate(3.786)" opacity="0.5" style="mix-blend-mode: multiply;isolation: isolate">
            <rect id="Rectangle_4007" data-name="Rectangle 4007" width="0.202" height="5.961" fill="#a3a7ad"/>
          </g>
          <path id="Path_27725" data-name="Path 27725" d="M175.955,219.453l-2.783.723-.133-.169v-.229l2.759-1.024v-.446h.976v.446l2.759,1.024v.229l-.132.169-2.783-.723Z" transform="translate(-172.604 -212.572)" fill="#a3a29f"/>
          <g id="Group_14198" data-name="Group 14198" transform="translate(0.436 6.708)">
            <path id="Path_27726" data-name="Path 27726" d="M176.618,224.825h-.663l-2.783.723-.133-.169v.173l.133.169,2.783-.723h.663l2.783.723.132-.169v-.173l-.132.169Z" transform="translate(-173.04 -224.825)" fill="#a3a29f" style="mix-blend-mode: multiply;isolation: isolate"/>
          </g>
          <g id="Group_14201" data-name="Group 14201" transform="translate(0 7.517)">
            <g id="Group_14199" data-name="Group 14199" transform="translate(0.1 0.12)">
              <path id="Path_27727" data-name="Path 27727" d="M171.939,231.635a.577.577,0,1,1-.577-.577A.577.577,0,0,1,171.939,231.635Z" transform="translate(-170.785 -231.058)" fill="#3f3e3d"/>
              <path id="Path_27728" data-name="Path 27728" d="M173.077,233.014a.335.335,0,1,1-.335-.335A.335.335,0,0,1,173.077,233.014Z" transform="translate(-172.164 -232.437)" fill="#a3a29f"/>
            </g>
            <g id="Group_14200" data-name="Group 14200">
              <path id="Path_27729" data-name="Path 27729" d="M170.791,230.25a.677.677,0,0,0-.677.675h1.354A.677.677,0,0,0,170.791,230.25Z" transform="translate(-170.114 -230.25)"/>
            </g>
          </g>
          <g id="Group_14204" data-name="Group 14204" transform="translate(6.152 7.517)">
            <g id="Group_14202" data-name="Group 14202" transform="translate(0.1 0.12)">
              <path id="Path_27730" data-name="Path 27730" d="M213.216,231.635a.577.577,0,1,1-.577-.577A.577.577,0,0,1,213.216,231.635Z" transform="translate(-212.062 -231.058)" fill="#3f3e3d"/>
              <path id="Path_27731" data-name="Path 27731" d="M214.355,233.014a.335.335,0,1,1-.335-.335A.335.335,0,0,1,214.355,233.014Z" transform="translate(-213.442 -232.437)" fill="#a3a29f"/>
            </g>
            <g id="Group_14203" data-name="Group 14203">
              <path id="Path_27732" data-name="Path 27732" d="M212.068,230.25a.677.677,0,0,0-.677.675h1.354A.677.677,0,0,0,212.068,230.25Z" transform="translate(-211.391 -230.25)"/>
            </g>
          </g>
          <path id="Path_27733" data-name="Path 27733" d="M191.919,222.566l-.11.718.116.754h.628l.137-.785-.094-.668Z" transform="translate(-188.576 -216.195)" fill="#a3a29f"/>
          <path id="Path_27734" data-name="Path 27734" d="M191.841,227.568l.111.723h.628l.125-.72C192.417,227.563,192.129,227.558,191.841,227.568Z" transform="translate(-188.603 -220.446)" fill="#a3a29f" opacity="0.5" style="mix-blend-mode: multiply;isolation: isolate"/>
          <g id="Group_14207" data-name="Group 14207" transform="translate(2.989 7.794)">
            <g id="Group_14205" data-name="Group 14205" transform="translate(0.1 0.121)">
              <path id="Path_27735" data-name="Path 27735" d="M192,233.5a.577.577,0,1,1-.577-.577A.577.577,0,0,1,192,233.5Z" transform="translate(-190.842 -232.919)" fill="#3f3e3d"/>
              <path id="Path_27736" data-name="Path 27736" d="M193.135,234.875a.335.335,0,1,1-.335-.335A.335.335,0,0,1,193.135,234.875Z" transform="translate(-192.222 -234.298)" fill="#a3a29f"/>
            </g>
            <g id="Group_14206" data-name="Group 14206">
              <path id="Path_27737" data-name="Path 27737" d="M190.847,232.109a.677.677,0,0,0-.677.675h1.354A.677.677,0,0,0,190.847,232.109Z" transform="translate(-190.17 -232.109)"/>
            </g>
          </g>
        </g>
        <path id="Path_27738" data-name="Path 27738" d="M188.224,176.768v.324a.05.05,0,0,0,0,.013c0,.119.424.215.946.215s.946-.1.946-.215v-.344Z" transform="translate(-185.523 -176.761)" fill="#a3a29f"/>
        <path id="Path_27739" data-name="Path 27739" d="M177.547,223.063s-1.873.651-1.881.692A14.014,14.014,0,0,0,177.547,223.063Z" transform="translate(-174.838 -216.162)" fill="#a3a29f" style="mix-blend-mode: screen;isolation: isolate"/>
        <g id="Group_14209" data-name="Group 14209" transform="translate(3.905 6.192)" style="mix-blend-mode: multiply;isolation: isolate">
          <path id="Path_27740" data-name="Path 27740" d="M199.339,219.876v-.1l-2.759-1.024v-.446h-.267v.555Z" transform="translate(-196.314 -218.309)" fill="#a3a29f"/>
        </g>
        <path id="Path_27741" data-name="Path 27741" d="M174.574,230.813a.674.674,0,0,1,.58.459A.473.473,0,0,0,174.574,230.813Z" transform="translate(-173.909 -222.751)" fill="#fff"/>
        <path id="Path_27742" data-name="Path 27742" d="M194.669,232.794a.674.674,0,0,1,.58.459A.472.472,0,0,0,194.669,232.794Z" transform="translate(-191.009 -224.437)" fill="#fff"/>
        <path id="Path_27743" data-name="Path 27743" d="M215.8,230.813a.674.674,0,0,1,.58.459A.472.472,0,0,0,215.8,230.813Z" transform="translate(-208.987 -222.751)" fill="#fff"/>
      </g>
      <path id="Path_27744" data-name="Path 27744" d="M175.906,151.313s-1.211-.313-.585-.817,1.96-.1,1.96-.1Z" transform="translate(-170.642 -135.701)" fill="#025360"/>
      <path id="Path_27745" data-name="Path 27745" d="M147.878,195a.257.257,0,0,0-.221-.161.848.848,0,0,0-.281.179c-.19.165-.339.215-1,.306s-1.057.116-1.247.372a.852.852,0,0,0-.153.42,2.665,2.665,0,0,0,1.775.488,2.319,2.319,0,0,0,1.865-.623c0-.153,0-.431,0-.791C148.1,195.349,147.963,195.236,147.878,195Z" transform="translate(-144.973 -173.645)" fill="#8135bc"/>
      <g id="Group_14211" data-name="Group 14211" transform="translate(2.684 15.447)">
        <path id="Path_27746" data-name="Path 27746" d="M163.975,160.824c0-2.015-.007-4.52-.007-4.52s-.768-.125-.877,1.222c-.064.788-.075,2.2-.072,3.232A2.79,2.79,0,0,0,163.975,160.824Z" transform="translate(-163.009 -156.301)" fill="#e0bea2"/>
        <path id="Path_27747" data-name="Path 27747" d="M162.973,186.209c0,.735.01,1.281.01,1.281l-.018,0a.257.257,0,0,1,.221.161c.085.24.224.353.743.189,0-.431,0-.979,0-1.569A2.789,2.789,0,0,1,162.973,186.209Z" transform="translate(-162.965 -181.752)" fill="#d3a111"/>
      </g>
      <path id="Path_27748" data-name="Path 27748" d="M146.733,203.109a2.665,2.665,0,0,1-1.775-.487.483.483,0,0,0,.194.481,2.346,2.346,0,0,0,1.223.24c.611.008,2.206-.1,2.222-.785,0-.019,0-.043,0-.071A2.319,2.319,0,0,1,146.733,203.109Z" transform="translate(-144.955 -180.155)" fill="#d3d1cf"/>
      <path id="Path_27749" data-name="Path 27749" d="M176.625,167.12v.9a.148.148,0,0,0-.005.037c0,.331,1.182.6,2.639.6s2.639-.268,2.639-.6v-.96Z" transform="translate(-171.901 -150.043)" fill="#00c39a"/>
      <g id="Group_14212" data-name="Group 14212" transform="translate(4.719 17.057)">
        <path id="Path_27750" data-name="Path 27750" d="M176.625,167.2v.9a.148.148,0,0,0-.005.037c0,.241.627.448,1.531.544V167.2Z" transform="translate(-176.62 -167.182)" fill="#00c39a" opacity="0.5" style="mix-blend-mode: multiply;isolation: isolate"/>
        <path id="Path_27751" data-name="Path 27751" d="M207.811,167.1v1.345c.392-.1.629-.24.629-.388v-.96Z" transform="translate(-203.162 -167.1)" fill="#00c39a" opacity="0.5" style="mix-blend-mode: multiply;isolation: isolate"/>
      </g>
      <path id="Path_27752" data-name="Path 27752" d="M181.9,163.815c0,.331-1.182.6-2.639.6s-2.639-.268-2.639-.6,1.182-.6,2.639-.6S181.9,163.484,181.9,163.815Z" transform="translate(-171.901 -146.738)" fill="#10e5b2"/>
      <g id="Group_14213" data-name="Group 14213" transform="translate(3.036 15.21)">
        <path id="Path_27753" data-name="Path 27753" d="M165.875,185.868c.036.659.072,1.178.082,1.327.139.02.364.117.437.532.036.136.461-.054.461-.054l.04-.248c.036-.432.082-.952.124-1.483A3.485,3.485,0,0,1,165.875,185.868Z" transform="translate(-165.793 -181.224)" fill="#fecb27"/>
        <path id="Path_27754" data-name="Path 27754" d="M167.781,156.51l-.262-1.783s-1.9-.223-2.118.807a23.234,23.234,0,0,0,0,3.816,3.485,3.485,0,0,0,1.144.073,17.485,17.485,0,0,0,.087-2.9A10.117,10.117,0,0,0,167.781,156.51Z" transform="translate(-165.324 -154.707)" fill="#f4d9bf"/>
        <path id="Path_27755" data-name="Path 27755" d="M177.2,156.531c.4,0,.593-.02.593-.02l-.262-1.783a4.039,4.039,0,0,0-.442-.02C177.1,155.316,177.133,155.925,177.2,156.531Z" transform="translate(-175.337 -154.707)" fill="#f4d9bf" style="mix-blend-mode: multiply;isolation: isolate"/>
      </g>
      <g id="Group_14215" data-name="Group 14215" transform="translate(5.156 14.64)">
        <path id="Path_27756" data-name="Path 27756" d="M179.942,153.709a.186.186,0,0,0-.128-.157c-.265.042-.266.082-.266.313,0,.253.084,1.41.1,1.8,0,.076.15.132.383.175A14.783,14.783,0,0,0,179.942,153.709Z" transform="translate(-179.547 -153.154)" fill="#025360"/>
        <path id="Path_27757" data-name="Path 27757" d="M185.1,151.16a5.673,5.673,0,0,1-2.591-.277,6.384,6.384,0,0,1-1.1.386l-.083.012a.186.186,0,0,1,.128.157,14.787,14.787,0,0,1,.085,2.126,10.678,10.678,0,0,0,1.279.114,1.992,1.992,0,0,0,2.277-2.518Z" transform="translate(-181.068 -150.883)" fill="#00667c"/>
        <g id="Group_14214" data-name="Group 14214" transform="translate(0.266)" opacity="0.5" style="mix-blend-mode: multiply;isolation: isolate">
          <path id="Path_27758" data-name="Path 27758" d="M185.1,151.16a5.673,5.673,0,0,1-2.591-.277s-.169.079-.407.17a4.681,4.681,0,0,0,.971.243c.172.029.029.272.029.372s-.172-.057-.243.243-.143.515-.673.544c.616.014.658-.043.759-.272s.028-.3.258-.272.258.114.458-.172,0-.343.444-.329.773.1.515.83-1.317,1.274-2.848,1.073a6.217,6.217,0,0,0-.359-2.045l-.082.012a.186.186,0,0,1,.128.157,14.787,14.787,0,0,1,.085,2.126,10.678,10.678,0,0,0,1.279.114,1.992,1.992,0,0,0,2.277-2.518Z" transform="translate(-181.334 -150.883)" fill="#00667c"/>
        </g>
      </g>
      <g id="Group_14216" data-name="Group 14216" transform="translate(5.617 14.872)" style="mix-blend-mode: multiply;isolation: isolate">
        <path id="Path_27759" data-name="Path 27759" d="M194.232,152.439s0,.051,0,.124c0,.037,0,.079-.008.125s-.007.094-.008.142,0,.1-.006.141,0,.087,0,.123c0,.018,0,.034,0,.049a.3.3,0,0,0,.005.038c0,.022.005.034.005.034l-.019-.029a.162.162,0,0,1-.018-.036.346.346,0,0,1-.018-.049.642.642,0,0,1-.025-.128.673.673,0,0,1,0-.073c0-.025,0-.05,0-.075a1.2,1.2,0,0,1,.048-.27A.741.741,0,0,1,194.232,152.439Z" transform="translate(-192.425 -152.439)" fill="#00667c"/>
        <path id="Path_27760" data-name="Path 27760" d="M182.64,154.207l.133-.012c.085-.006.206-.018.352-.027l.5-.031a1.347,1.347,0,0,0,.134-.014l.064-.016a.462.462,0,0,0,.056-.026.368.368,0,0,0,.115-.23,1.158,1.158,0,0,1,.044-.144.215.215,0,0,1,.109-.126.283.283,0,0,1,.159-.013l.137.023a.376.376,0,0,0,.063.005h.029l.027-.007a.2.2,0,0,0,.048-.025l.04-.041c.045-.064.089-.134.127-.195.078-.123.148-.223.194-.294l.075-.111-.063.118c-.042.074-.1.182-.171.308-.037.064-.073.13-.121.206-.014.017-.03.035-.046.052a.262.262,0,0,1-.065.038l-.037.011-.037,0a.424.424,0,0,1-.072,0,.584.584,0,0,0-.258-.009c-.067.029-.088.133-.112.224a.987.987,0,0,1-.046.144l-.017.036a.386.386,0,0,1-.024.034.242.242,0,0,1-.061.057.6.6,0,0,1-.289.06c-.092,0-.179,0-.263.005l-.235,0c-.146,0-.267,0-.352,0Z" transform="translate(-182.64 -152.852)" fill="#00667c"/>
      </g>
      <path id="Path_27761" data-name="Path 27761" d="M166.472,130.671s-.446,1.193-.747,1.832c-.289.566-.578.627-1.41.747-.783.1-1.024.313-.892.976l2.41-1.012.759-2.506Z" transform="translate(-160.642 -119.044)" fill="#e0bea2"/>
      <path id="Path_27762" data-name="Path 27762" d="M183.19,131.1l.118-.39-.12-.036s-.062.166-.155.407Z" transform="translate(-177.357 -119.044)" fill="#f4d9bf" style="mix-blend-mode: multiply;isolation: isolate"/>
      <path id="Path_27763" data-name="Path 27763" d="M184.546,115.42s-.66.4-1.35,2.312a1.114,1.114,0,0,1,.233.126Z" transform="translate(-177.497 -106.066)" fill="#e32a1f"/>
      <g id="Group_14218" data-name="Group 14218" transform="translate(5.192 7.575)">
        <path id="Path_27764" data-name="Path 27764" d="M193.577,103.479l-.9.425a3.08,3.08,0,0,1-.029.769,2.624,2.624,0,0,1-.324.317s1.09-.411,1.4-.557C193.6,103.546,193.577,103.479,193.577,103.479Z" transform="translate(-190.453 -103.479)" fill="#e3bb94"/>
        <path id="Path_27765" data-name="Path 27765" d="M183.332,110.019c.109-.235-.145-.233-.279-.207-.306.146-1.4.557-1.4.557v.216a17.67,17.67,0,0,0-1.868,5.037c2.422.922,3.759.8,4.211.56A26.286,26.286,0,0,0,183.332,110.019Z" transform="translate(-179.79 -108.859)" fill="#006ab0"/>
        <g id="Group_14217" data-name="Group 14217" transform="translate(0 0.942)" opacity="0.6" style="mix-blend-mode: multiply;isolation: isolate">
          <path id="Path_27766" data-name="Path 27766" d="M183.332,110.019c.109-.235-.145-.233-.279-.207-.306.146-1.4.557-1.4.557v.117c.214-.067.483-.124.483.008a17.6,17.6,0,0,1-.879,2.772l.44.068a3.169,3.169,0,0,1-1.807,1.71c-.042.194-.078.387-.1.578,2.422.922,3.759.8,4.211.56A26.286,26.286,0,0,0,183.332,110.019Z" transform="translate(-179.79 -109.801)" fill="#006ab0"/>
        </g>
      </g>
      <g id="Group_14219" data-name="Group 14219" transform="translate(3.999 0)">
        <path id="Path_27767" data-name="Path 27767" d="M176.628,69.927c.886.407,1.112-.551.9-.886s-.642-.081-.642-.081-.443.334-.614.289-.135-1.735-.135-1.735-.416.967-.515.822a5.971,5.971,0,0,1-.28-2.44s-.488.7-.624.633c-.316-.117.175-1.274.175-1.274a9.8,9.8,0,0,1-1.638.651c-.185-.04-.12-.337.249-.819-.084.054-.21.146-.334.241a3.79,3.79,0,0,0-.755,2.214c-.015.372-.076.456-.29.51s-.382.107-.336.42.42.45.42.45a8.108,8.108,0,0,0,.014.875c.038.212.083.221.2.275s.036.253.443.678a2.3,2.3,0,0,0,2.892.316l-.025.031A3.18,3.18,0,0,0,176.628,69.927Z" transform="translate(-171.784 -63.233)" fill="#f4d9bf"/>
        <path id="Path_27768" data-name="Path 27768" d="M182.347,55.306a2.1,2.1,0,0,1,.47-.181,1.051,1.051,0,0,0-.783-.193c-.024-.771-.229-.843-.277-.337a4.248,4.248,0,0,0-6.067-1.078,1.349,1.349,0,0,1-1.063-.4,1.171,1.171,0,0,0,.5.831s-.538.1-.684.379c-.061.122.684.1.684.1s-.433.409-.36.572c.072.145.687-.271.687-.271l-.022.027c.125-.094.25-.186.334-.241-.369.482-.434.779-.249.819a9.8,9.8,0,0,0,1.638-.651s-.491,1.157-.175,1.274c.135.072.624-.633.624-.633a5.972,5.972,0,0,0,.28,2.44c.1.145.515-.822.515-.822s-.036,1.69.135,1.735.614-.289.614-.289.434-.253.642.081-.018,1.292-.9.886a3.18,3.18,0,0,1-.893,1.17c-.039.052-.106.153-.071.2a1.626,1.626,0,0,0,1.41-.4c-.3.337-.362.4-.3.458a2.583,2.583,0,0,0,1.542-.627c-.229.277-.182.343-.072.361.422.072,1.084-.482,1.349-1.012.012.313-.024.422.1.422a1.792,1.792,0,0,0,.651-1.458c.18.41.313.361.434-.084A3.232,3.232,0,0,0,182.347,55.306Z" transform="translate(-174.045 -52.655)" fill="#a9775e"/>
      </g>
      <path id="Path_27769" data-name="Path 27769" d="M178.183,87.844c.011.159-.268.29-.624.293s-.653-.123-.665-.282.268-.29.624-.293S178.172,87.686,178.183,87.844Z" transform="translate(-172.135 -82.36)" fill="#f9cbc0"/>
      <g id="Group_14220" data-name="Group 14220" transform="translate(5.078 4.226)">
        <path id="Path_27770" data-name="Path 27770" d="M179.259,81.327c-.022.157-.089.269-.151.25s-.1-.161-.074-.318.089-.269.151-.25S179.28,81.17,179.259,81.327Z" transform="translate(-179.027 -81.007)" fill="#673121"/>
        <path id="Path_27771" data-name="Path 27771" d="M179.416,81.533c-.01.047-.033.078-.051.071s-.026-.051-.016-.1.033-.078.052-.071S179.426,81.487,179.416,81.533Z" transform="translate(-179.297 -81.371)" fill="#fff"/>
      </g>
      <path id="Path_27772" data-name="Path 27772" d="M178.451,76.382a3.2,3.2,0,0,1,.593.191c.067.04.143-.03-.092-.143S178.341,76.31,178.451,76.382Z" transform="translate(-173.442 -72.806)" fill="#a9775e"/>
      <g id="Group_14221" data-name="Group 14221" transform="translate(4.885 5.222)" opacity="0.5">
        <path id="Path_27773" data-name="Path 27773" d="M178.172,87.69a.7.7,0,0,1-.055.082,1.462,1.462,0,0,1-.141.159,1.438,1.438,0,0,1-.163.137.7.7,0,0,1-.084.053.676.676,0,0,1,.055-.082,1.47,1.47,0,0,1,.3-.3A.714.714,0,0,1,178.172,87.69Z" transform="translate(-177.73 -87.69)" fill="#ff2a1f"/>
        <path id="Path_27774" data-name="Path 27774" d="M179.337,87.983a.778.778,0,0,1-.066.084,1.722,1.722,0,0,1-.349.3.8.8,0,0,1-.093.053.793.793,0,0,1,.066-.084,1.732,1.732,0,0,1,.349-.3A.819.819,0,0,1,179.337,87.983Z" transform="translate(-178.665 -87.939)" fill="#ff2a1f"/>
        <path id="Path_27775" data-name="Path 27775" d="M181.962,88.02a.859.859,0,0,1-.07.083,1.755,1.755,0,0,1-.173.158,1.782,1.782,0,0,1-.192.135.823.823,0,0,1-.1.05.856.856,0,0,1,.07-.083,1.767,1.767,0,0,1,.364-.293A.829.829,0,0,1,181.962,88.02Z" transform="translate(-180.88 -87.971)" fill="#ff2a1f"/>
      </g>
      <path id="Path_27776" data-name="Path 27776" d="M176.092,98.535a.567.567,0,0,1,.112.029c.033.011.071.025.111.043s.079.041.12.063l.059.035a.378.378,0,0,1,.054.039c.034.027.065.053.091.077a.888.888,0,0,1,.081.082.973.973,0,0,1-.105-.048c-.031-.015-.065-.035-.1-.057s-.076-.042-.115-.065-.078-.046-.113-.069-.07-.042-.1-.061l-.069-.048Z" transform="translate(-171.451 -91.697)" fill="#c39368"/>
      <path id="Path_27777" data-name="Path 27777" d="M206.8,92.73c-.054-.168-.243-.252-.363-.1a.985.985,0,0,0-.132.526c0,.011.017.017.021,0,.028-.093.04-.188.064-.281.019,0,.04.007.055.011a.648.648,0,0,1,.214.1c.01.008.024-.007.015-.017a.782.782,0,0,0-.263-.166.342.342,0,0,1,.121-.179c.09-.056.2.045.252.108C206.792,92.749,206.8,92.739,206.8,92.73Z" transform="translate(-197.161 -86.604)" fill="#c39368"/>
      <path id="Path_27778" data-name="Path 27778" d="M165.212,98.789s-1.353.468-1.652.557-.421.175-.319.323.629-.19,1.125-.373,1.065-.388,1.065-.388Z" transform="translate(-160.486 -91.913)" fill="#eeeff4"/>
      <path id="Path_27779" data-name="Path 27779" d="M174.578,99.05l.39-.141-.219-.119-.336.116Z" transform="translate(-170.022 -91.913)" fill="#a3a7ad" opacity="0.5" style="mix-blend-mode: multiply;isolation: isolate"/>
      <g id="Group_14222" data-name="Group 14222" transform="translate(4.395 0.69)" opacity="0.5" style="mix-blend-mode: multiply;isolation: isolate">
        <path id="Path_27780" data-name="Path 27780" d="M182,60.652c.127.976-.2,1.753-.524.542-.036,1.247-1.247,1.771-1.374.434-.669.777-.687-.271-.687-.271s-.344.723-.579.7-.162-2.115-.162-2.115-.4,1.229-.723,1.067-.036-2.585-.036-2.585-.524.958-.7.849.325-1.157.325-1.157-1.229.8-1.464.669.09-.687.09-.687-.777.488-.868.362.344-.362.344-.362-.741.163-.777.036.7-.325.7-.325a1.894,1.894,0,0,1-.9-.526,1.327,1.327,0,0,0,.462.6s-.538.1-.684.379c-.061.122.684.1.684.1s-.433.409-.36.572c.072.145.687-.271.687-.271l-.022.027c.125-.094.25-.186.334-.241-.369.482-.434.779-.249.819a9.8,9.8,0,0,0,1.638-.651s-.491,1.157-.175,1.274c.135.072.624-.633.624-.633a5.972,5.972,0,0,0,.28,2.44c.1.145.515-.822.515-.822s-.036,1.69.135,1.735.614-.289.614-.289.434-.253.642.081-.018,1.292-.9.886a3.18,3.18,0,0,1-.893,1.17c-.039.052-.106.153-.071.2a1.626,1.626,0,0,0,1.41-.4c-.3.337-.362.4-.3.458a2.583,2.583,0,0,0,1.542-.627c-.229.277-.182.343-.072.361.422.072,1.084-.482,1.349-1.012.012.313-.024.422.1.422a1.792,1.792,0,0,0,.651-1.458c.18.41.313.361.434-.084a3.659,3.659,0,0,0-.272-2.586C183.352,61.332,182.722,61.782,182,60.652Z" transform="translate(-174.441 -57.288)" fill="#a9775e"/>
      </g>
      <path id="Path_27781" data-name="Path 27781" d="M191.189,114.886a11.6,11.6,0,0,0,1.9.244c.352-.967.524-3.118-.325-3.289-.44-.05-.75.208-.8.94A20.6,20.6,0,0,1,191.189,114.886Z" transform="translate(-184.298 -103.015)" fill="#e32a1f"/>
      <path id="Path_27782" data-name="Path 27782" d="M151.019,207.1c.171.341.653.534,1.914.365,1.016-.142,1.635-.322,1.754-.7A5.141,5.141,0,0,1,151.019,207.1Z" transform="translate(-150.115 -183.797)" fill="#f4f3f2"/>
      <path id="Path_27783" data-name="Path 27783" d="M153.333,195.3c-.073-.414-.3-.512-.437-.532l0,.044s-.174.495-1.106.778c-.811.246-1.384.492-1.248,1.157a.7.7,0,0,0,.053.145,5.141,5.141,0,0,0,3.668-.335.447.447,0,0,0,.022-.11c.027-.455.009-1.484-.455-1.448l-.04.248S153.369,195.438,153.333,195.3Z" transform="translate(-149.695 -173.589)" fill="#ad5fdf"/>
      <g id="Group_14223" data-name="Group 14223" transform="translate(3.097 15.21)">
        <path id="Path_27784" data-name="Path 27784" d="M165.875,185.868c.036.659.072,1.178.082,1.327.139.02.364.117.437.532.036.136.461-.054.461-.054l.04-.248c.036-.432.082-.952.124-1.483A3.485,3.485,0,0,1,165.875,185.868Z" transform="translate(-165.854 -181.224)" fill="#fecb27"/>
        <path id="Path_27785" data-name="Path 27785" d="M165.915,155.471c.136-.181.316-.407.56-.389a1.51,1.51,0,0,0,.962-.376c-.575,0-1.535.113-1.685.828-.006.027-.011.057-.016.089A.537.537,0,0,0,165.915,155.471Z" transform="translate(-165.736 -154.707)" fill="#e0bea2"/>
      </g>
      <path id="Path_27786" data-name="Path 27786" d="M168.209,132.9s-.311,1.749-3.017,2.349a1.485,1.485,0,0,0-1.1.213c-.26.2-.454.626-.38.732,0,0-.037.25.042.287-.014.227.055.255.055.255-.018.218.074.408.2.125s.345-.486.6-.462a1,1,0,0,0,.968-.326,14.88,14.88,0,0,0,2.08-.9,3.678,3.678,0,0,0,1.482-2.145Z" transform="translate(-160.902 -120.938)" fill="#f4d9bf"/>
      <path id="Path_27787" data-name="Path 27787" d="M194.457,133.3c.034-.1.062-.195.084-.279l-.934-.126a1.42,1.42,0,0,1-.065.217C193.848,133.169,194.153,133.234,194.457,133.3Z" transform="translate(-186.301 -120.938)" fill="#f4d9bf" style="mix-blend-mode: multiply;isolation: isolate"/>
      <g id="Group_14224" data-name="Group 14224" transform="translate(2.809 14.645)">
        <path id="Path_27788" data-name="Path 27788" d="M164.522,154.364a.217.217,0,0,1,0-.04.292.292,0,0,1,.007-.046c0-.018.007-.038.013-.059a.85.85,0,0,1,.056-.14c.013-.025.025-.051.04-.076l.05-.073a.712.712,0,0,1,.053-.07c.019-.022.039-.042.058-.062l.055-.057.055-.045c.069-.054.118-.087.118-.087s-.037.046-.1.109l-.048.05-.049.06c-.017.02-.034.042-.053.063a.666.666,0,0,0-.05.069l-.049.069-.042.07a.758.758,0,0,0-.038.067l-.031.062c-.016.039-.033.072-.039.1S164.522,154.364,164.522,154.364Z" transform="translate(-164.414 -153.208)" fill="#a9775e"/>
        <path id="Path_27789" data-name="Path 27789" d="M164.083,152.656a.687.687,0,0,1,.027-.143.527.527,0,0,1,.023-.067.7.7,0,0,1,.03-.073l.039-.075a.567.567,0,0,1,.046-.074l.052-.071a.606.606,0,0,1,.057-.063l.056-.056a.318.318,0,0,1,.055-.045c.072-.051.121-.081.121-.081s-.04.044-.1.1a.393.393,0,0,0-.047.05l-.049.059c-.017.021-.036.04-.051.063l-.048.069a.523.523,0,0,0-.046.07l-.042.07c-.014.023-.024.046-.035.068s-.023.042-.031.062c-.017.039-.033.072-.042.1S164.083,152.656,164.083,152.656Z" transform="translate(-164.041 -151.759)" fill="#a9775e"/>
        <path id="Path_27790" data-name="Path 27790" d="M163.8,151.524a.68.68,0,0,1,.031-.114,1.09,1.09,0,0,1,.047-.111,1.339,1.339,0,0,1,.07-.12l.041-.057a.4.4,0,0,1,.044-.052.744.744,0,0,1,.086-.085c.056-.044.095-.07.095-.07s-.028.039-.072.091c-.023.025-.044.061-.071.094s-.05.073-.077.11-.048.078-.073.113l-.061.1c-.017.03-.033.054-.042.072Z" transform="translate(-163.802 -150.915)" fill="#a9775e"/>
      </g>
      <g id="Group_14225" data-name="Group 14225" transform="translate(8.24 8.835)" style="mix-blend-mode: multiply;isolation: isolate">
        <path id="Path_27791" data-name="Path 27791" d="M200.5,111.938c.189.146.358.469.256,1.183a11.037,11.037,0,0,1-.512,2.066,4.932,4.932,0,0,0,.548.03C201.14,114.264,201.311,112.16,200.5,111.938Z" transform="translate(-200.244 -111.938)" fill="#b72a1f"/>
      </g>
      <g id="Group_14226" data-name="Group 14226" transform="translate(0.344 20.515)">
        <path id="Path_27792" data-name="Path 27792" d="M150.2,191.192a.39.39,0,0,0-.069.034.384.384,0,0,0-.11.107.25.25,0,0,0-.023.035c-.007.013-.016.023-.021.036s-.024.048-.035.068-.018.039-.025.051l-.011.02s0-.008,0-.022a.31.31,0,0,1,0-.059.331.331,0,0,1,.016-.083.327.327,0,0,1,.044-.088.278.278,0,0,1,.073-.07.225.225,0,0,1,.081-.033A.155.155,0,0,1,150.2,191.192Z" transform="translate(-149.505 -191.053)" fill="#a3a29f"/>
        <path id="Path_27793" data-name="Path 27793" d="M147.582,190.309a.146.146,0,0,0-.022.011.6.6,0,0,0-.052.033l-.03.026a.226.226,0,0,0-.03.031c-.01.012-.021.022-.03.035l-.026.04a.156.156,0,0,0-.025.041c-.007.015-.015.029-.022.042s-.017.027-.021.04-.01.027-.016.038a.609.609,0,0,1-.041.08.528.528,0,0,1,0-.091c0-.014,0-.028,0-.044a.235.235,0,0,1,.014-.048c.006-.016.011-.034.019-.05a.192.192,0,0,1,.027-.049l.034-.046a.277.277,0,0,1,.041-.037.268.268,0,0,1,.085-.047.225.225,0,0,1,.068-.01A.08.08,0,0,1,147.582,190.309Z" transform="translate(-147.264 -190.306)" fill="#a3a29f"/>
        <path id="Path_27794" data-name="Path 27794" d="M179.469,194.653a.39.39,0,0,1,.088.063.527.527,0,0,1,.073.084.517.517,0,0,1,.062.114.626.626,0,0,1,.018.064.305.305,0,0,1,.007.065.238.238,0,0,1,0,.061.22.22,0,0,1-.012.053c-.005.016-.011.03-.016.042l-.018.03-.017.024,0-.03,0-.032c0-.013,0-.027,0-.042a.32.32,0,0,0,0-.048.324.324,0,0,0-.006-.052.423.423,0,0,0-.012-.055.515.515,0,0,0-.017-.055,1.2,1.2,0,0,0-.1-.2Z" transform="translate(-174.669 -194.005)" fill="#a3a29f"/>
        <path id="Path_27795" data-name="Path 27795" d="M181.975,193.9a.312.312,0,0,1,.089.072.418.418,0,0,1,.068.1.467.467,0,0,1,.043.132.569.569,0,0,1,.006.07.674.674,0,0,1,0,.068.589.589,0,0,1-.013.062.3.3,0,0,1-.019.053.343.343,0,0,1-.039.074l-.018.026s0-.012,0-.031.01-.046.012-.079c0-.016.005-.033.006-.052s0-.037,0-.057,0-.04,0-.061,0-.041-.008-.062a.674.674,0,0,0-.03-.119.851.851,0,0,0-.043-.1A.909.909,0,0,0,181.975,193.9Z" transform="translate(-176.802 -193.36)" fill="#a3a29f"/>
      </g>
    </g>
    <g id="Group_14259" data-name="Group 14259" transform="translate(0 0)">
      <g id="Group_14231" data-name="Group 14231" transform="translate(2.822 10.83)">
        <g id="Group_14228" data-name="Group 14228">
          <path id="Path_27796" data-name="Path 27796" d="M36.692,101.1a5.923,5.923,0,0,0-2.541.792.9.9,0,0,0-.129.137c.333-.216.792-.347.9.46.152,1.1.651,4.744.8,5.867h1.22Z" transform="translate(-33.755 -101.103)"/>
          <path id="Path_27797" data-name="Path 27797" d="M32.5,106.4c-.476.618-.232,1.907.092,4.191l.313,2.136h1.3c-.153-1.123-.652-4.771-.8-5.867C33.292,106.051,32.833,106.182,32.5,106.4Z" transform="translate(-32.234 -105.469)" fill="#5b5b5a"/>
        </g>
        <g id="Group_14229" data-name="Group 14229" transform="translate(1.415 2.992)" style="mix-blend-mode: multiply;isolation: isolate">
          <path id="Path_27798" data-name="Path 27798" d="M41.729,121.311a.653.653,0,0,1,.087-.041,1.375,1.375,0,0,1,.4-.091.654.654,0,0,1,.1,0,.664.664,0,0,1-.087.041,1.374,1.374,0,0,1-.4.091A.658.658,0,0,1,41.729,121.311Z" transform="translate(-41.729 -121.177)" fill="#3f3e3d"/>
          <path id="Path_27799" data-name="Path 27799" d="M43.645,135a1.308,1.308,0,0,1,.125-.052,2.84,2.84,0,0,1,.572-.141,1.292,1.292,0,0,1,.135-.012,1.243,1.243,0,0,1-.125.052,2.781,2.781,0,0,1-.282.085,2.811,2.811,0,0,1-.29.055A1.312,1.312,0,0,1,43.645,135Z" transform="translate(-43.359 -132.765)" fill="#3f3e3d"/>
        </g>
        <g id="Group_14230" data-name="Group 14230" transform="translate(0 0.765)" opacity="0.5" style="mix-blend-mode: multiply;isolation: isolate">
          <path id="Path_27800" data-name="Path 27800" d="M34.209,112.725c-.153-1.123-.652-4.771-.8-5.867-.112-.806-.571-.676-.9-.46a3.032,3.032,0,0,0-.2,2.09c-.049-.727-.038-1.7.351-1.809.491-.112.618,2,.9,3.547.329,1.822-.461,2.353-.814,1.347l.169,1.152Z" transform="translate(-32.235 -106.234)" fill="#5b5b5a"/>
        </g>
      </g>
      <g id="Group_14234" data-name="Group 14234" transform="translate(0 17.771)">
        <rect id="Rectangle_4008" data-name="Rectangle 4008" width="16.773" height="11.037" transform="translate(1.366 2.853)" fill="#a39f8b"/>
        <g id="Group_14232" data-name="Group 14232" transform="translate(1.366 2.852)" opacity="0.5" style="mix-blend-mode: multiply;isolation: isolate">
          <path id="Path_27801" data-name="Path 27801" d="M39.235,166.809H22.462v.858c2.984.005,15.636.593,16.086,10.179h.687Z" transform="translate(-22.462 -166.809)" fill="#a39f8b"/>
        </g>
        <g id="Group_14233" data-name="Group 14233">
          <path id="Path_27802" data-name="Path 27802" d="M15.771,147.67h14.8l2.1,2.542H13.3Z" transform="translate(-13.296 -147.67)" fill="#dedbc3"/>
          <rect id="Rectangle_4009" data-name="Rectangle 4009" width="19.368" height="0.504" transform="translate(0 2.543)" fill="#c1bda7"/>
        </g>
      </g>
      <g id="Group_14258" data-name="Group 14258" transform="translate(2.734 0)">
        <path id="Path_27803" data-name="Path 27803" d="M49.014,147.566s.032.556.776.567,1.71.073,2.465.147.869.1,1.007-.178c.116-.231.4.168.808.21s.64-.4.7-.241.4.115.588.021.755-.419-.661-.441Z" transform="translate(-46.425 -129.811)" fill="#dedbc3" style="mix-blend-mode: multiply;isolation: isolate"/>
        <path id="Path_27804" data-name="Path 27804" d="M116.869,106.188l.02-.027c.21-.53-.752-2.431-1.017-2.619-.024.023-.048.048-.073.074A2.122,2.122,0,0,0,116.869,106.188Z" transform="translate(-103.191 -92.348)" fill="#757b87"/>
        <path id="Path_27805" data-name="Path 27805" d="M50.566,97.876a1.968,1.968,0,0,0-.434-.064l-4.549-.367s-1.652.886-1.982,1.066-.362,1.054-.024,2.693.819,3.747.819,3.747h7.266l-.027-2.012.008.013c-.015-.114-.154-1.163-.376-2.11C51.085,100.067,50.722,98.533,50.566,97.876Z" transform="translate(-41.594 -87.16)" fill="#f7f9fc"/>
        <g id="Group_14235" data-name="Group 14235" transform="translate(3.758 10.285)" opacity="0.5" style="mix-blend-mode: multiply;isolation: isolate">
          <path id="Path_27806" data-name="Path 27806" d="M57.573,100.337c-.145.4.018.4.633.7a9.937,9.937,0,0,1,1.41.886c.271.2.344.651.416,1.536a8.444,8.444,0,0,1,.109-1.3c.764-.765,1.681-1.717,1.536-1.9s-.633-.868-.633-.868l.836-1.56a1.7,1.7,0,0,0-.245-.024l-4.549-.367-.23.124,1.08,1.611S57.718,99.939,57.573,100.337Z" transform="translate(-56.855 -97.445)" fill="#a3a7ad"/>
        </g>
        <path id="Path_27807" data-name="Path 27807" d="M95.474,100.888a17.5,17.5,0,0,0-1.5,2.136s-.464-.895-.972-1.823a1.8,1.8,0,0,0-1.168-.865c.156.657.519,2.191.7,2.967.222.947.361,2,.376,2.11a.9.9,0,0,0,1.152.373,6.8,6.8,0,0,0,2.478-2.327A2.122,2.122,0,0,1,95.474,100.888Z" transform="translate(-82.866 -89.62)" fill="#eeeff4"/>
        <path id="Path_27808" data-name="Path 27808" d="M71.5,90.2l-.03-.026-.042-.548-1.166-.014.028.646.667.7Z" transform="translate(-64.51 -80.497)" fill="#e3bb94"/>
        <path id="Path_27809" data-name="Path 27809" d="M48.467,43.642a7.591,7.591,0,0,1-.711,2.434,3.71,3.71,0,0,0-.12,2.109c.024.193-.289-.193-.482-.518s-.735-.193-.771.41.434,1.072.843.8a2.131,2.131,0,0,0,1.374,1.3l.01.017c3.859,1.123,4.965-1.064,5.11-2.516.084-.842-.293-1.594-.179-2.651a2.567,2.567,0,0,0-.179-1.529A5.446,5.446,0,0,1,48.467,43.642Z" transform="translate(-44.184 -41.25)" fill="#f4d9bf"/>
        <path id="Path_27810" data-name="Path 27810" d="M41.534,28.842s-.049.5-.325.618c.179-.455.016-1.025-.1-1.025s-.016.6-.358.846a6.428,6.428,0,0,0-4.278-.748c-3.415.488-3.318,1.887-3.318,1.887s-.732.276-1.3,1.968a2.8,2.8,0,0,0,.163,2.6l.114-.537a1.989,1.989,0,0,0,.5,1.464,1.575,1.575,0,0,1,.049-.813c.2,1.447,2.5,2.277,3.285,2.244l.094.028-.01-.017a2.131,2.131,0,0,1-1.374-1.3c-.41.277-.88-.193-.843-.8s.578-.735.771-.41.506.711.482.518a3.71,3.71,0,0,1,.12-2.109,7.591,7.591,0,0,0,.711-2.434,5.446,5.446,0,0,0,4.895-.148C42.288,29.409,41.534,28.842,41.534,28.842Z" transform="translate(-31.641 -28.435)" fill="#d17a23"/>
        <path id="Path_27811" data-name="Path 27811" d="M83.933,71.09s.068.075.16.2c.046.06.1.132.149.212.025.04.052.082.076.126a.626.626,0,0,1,.062.148.113.113,0,0,1-.027.1.454.454,0,0,1-.057.058,1.1,1.1,0,0,1-.121.088,2.342,2.342,0,0,1-.227.127c-.136.066-.231.1-.231.1l.211-.137c.063-.041.136-.089.211-.143.038-.027.075-.057.111-.087a.364.364,0,0,0,.046-.049.085.085,0,0,0,.008-.012l0-.008s0-.013,0-.009l0-.013a.585.585,0,0,0-.052-.128c-.022-.043-.045-.085-.068-.126l-.129-.222-.091-.158Z" transform="translate(-75.955 -64.733)" fill="#c39368"/>
        <path id="Path_27812" data-name="Path 27812" d="M69.612,81.3a1.96,1.96,0,0,0,1.6.344c-.251.453-.629.687-1.006.553S69.612,81.3,69.612,81.3Z" transform="translate(-63.953 -73.421)" fill="#fff"/>
        <path id="Path_27813" data-name="Path 27813" d="M69.612,81.3c.059.04.12.076.182.11s.125.066.19.095c.032.015.064.029.1.042s.065.028.1.039c.066.025.134.045.2.064.034.009.069.015.1.023a.947.947,0,0,0,.1.017.921.921,0,0,0,.1.011l.105.005.1-.006a.643.643,0,0,0,.1-.015.539.539,0,0,0,.1-.024l.1-.032.044-.015-.022.038c-.025.043-.049.086-.078.127a1.344,1.344,0,0,1-.089.12,1.269,1.269,0,0,1-.1.11,1.163,1.163,0,0,1-.116.1.791.791,0,0,1-.271.127.684.684,0,0,1-.15.018l-.076,0-.074-.013L70.2,82.21l-.067-.032-.063-.044c-.02-.016-.037-.034-.056-.051a.935.935,0,0,1-.1-.114,1.287,1.287,0,0,1-.081-.124A2.5,2.5,0,0,1,69.612,81.3Zm0,0a2.591,2.591,0,0,0,.242.536,1.292,1.292,0,0,0,.083.121.906.906,0,0,0,.1.109c.018.016.035.033.054.047l.059.04.067.031.068.02.071.012.072,0a.645.645,0,0,0,.142-.018.758.758,0,0,0,.259-.124,1.116,1.116,0,0,0,.111-.093c.035-.034.067-.07.1-.107a1.357,1.357,0,0,0,.087-.117c.028-.04.052-.082.077-.124l.021.024-.1.033a.577.577,0,0,1-.105.024.665.665,0,0,1-.107.015l-.108.006-.107-.006a.849.849,0,0,1-.106-.013.925.925,0,0,1-.105-.02c-.035-.009-.07-.016-.1-.025-.068-.021-.136-.042-.2-.068-.034-.012-.066-.027-.1-.041s-.065-.029-.1-.045c-.064-.031-.126-.065-.187-.1S69.669,81.342,69.612,81.3Z" transform="translate(-63.953 -73.421)" fill="#c39368"/>
        <path id="Path_27814" data-name="Path 27814" d="M80.353,81.835l.09-.049c.027-.013.057-.031.091-.047s.069-.035.1-.055.07-.036.1-.056.064-.034.088-.051a.813.813,0,0,1,.089-.051.723.723,0,0,1-.063.083.55.55,0,0,1-.079.072.336.336,0,0,1-.049.035l-.053.032a.958.958,0,0,1-.111.05.788.788,0,0,1-.1.028A.433.433,0,0,1,80.353,81.835Z" transform="translate(-73.093 -73.612)" fill="#c39368"/>
        <g id="Group_14236" data-name="Group 14236" transform="translate(8.936 5.424)">
          <path id="Path_27815" data-name="Path 27815" d="M91.607,65.2c.025.181.1.31.174.288s.11-.185.085-.366-.1-.31-.174-.288S91.583,65.018,91.607,65.2Z" transform="translate(-91.6 -64.831)" fill="#673121"/>
          <path id="Path_27816" data-name="Path 27816" d="M92.489,65.436c.011.054.038.09.059.082s.03-.059.018-.112-.038-.09-.059-.081S92.477,65.383,92.489,65.436Z" transform="translate(-92.352 -65.249)" fill="#fff"/>
        </g>
        <g id="Group_14237" data-name="Group 14237" transform="translate(6.083 5.673)">
          <path id="Path_27817" data-name="Path 27817" d="M72.462,66.866c.025.181.1.31.174.288s.11-.185.085-.366-.1-.31-.174-.288S72.438,66.685,72.462,66.866Z" transform="translate(-72.455 -66.498)" fill="#673121"/>
          <path id="Path_27818" data-name="Path 27818" d="M73.343,67.1c.012.054.038.09.059.081s.03-.059.018-.112-.038-.09-.059-.081S73.332,67.05,73.343,67.1Z" transform="translate(-73.206 -66.917)" fill="#fff"/>
        </g>
        <path id="Path_27819" data-name="Path 27819" d="M68.383,60.63a.539.539,0,0,1,.009-.177.58.58,0,0,1,.062-.175.376.376,0,0,1,.166-.165.274.274,0,0,1,.128-.026.3.3,0,0,1,.117.027.427.427,0,0,1,.089.054.489.489,0,0,1,.064.061.54.54,0,0,1,.075.1c.015.027.022.043.022.043l-.043-.023-.106-.059c-.021-.012-.045-.022-.069-.033a.544.544,0,0,0-.075-.026l-.038-.007c-.012,0-.025,0-.036,0a.161.161,0,0,0-.067.017.34.34,0,0,0-.12.1,1.4,1.4,0,0,0-.092.134Z" transform="translate(-62.904 -55.369)" fill="#d17a23"/>
        <path id="Path_27820" data-name="Path 27820" d="M89.563,59.839a.379.379,0,0,1,.025-.145.451.451,0,0,1,.03-.067.36.36,0,0,1,.05-.069.18.18,0,0,1,.034-.032.269.269,0,0,1,.041-.029l.05-.022a.392.392,0,0,1,.055-.009.159.159,0,0,1,.055,0,.179.179,0,0,1,.052.013.3.3,0,0,1,.084.048.359.359,0,0,1,.06.059c.016.021.029.041.041.06a.25.25,0,0,1,.027.054c.007.016.012.031.017.043s.011.039.011.039l-.035-.021-.037-.026c-.014-.009-.028-.023-.045-.033s-.035-.022-.053-.035a.5.5,0,0,0-.057-.032.293.293,0,0,0-.058-.023c-.009-.005-.018,0-.027,0a.059.059,0,0,0-.026,0c-.008,0-.017,0-.026,0l-.026.009a.282.282,0,0,0-.053.031.478.478,0,0,0-.05.04l-.045.043Z" transform="translate(-80.93 -54.841)" fill="#d17a23"/>
        <path id="Path_27821" data-name="Path 27821" d="M47.387,73.53c.054-.168.243-.252.363-.1a.985.985,0,0,1,.132.526c0,.012-.017.017-.021,0-.028-.093-.04-.188-.064-.281-.019,0-.04.007-.054.011a.641.641,0,0,0-.214.1c-.01.008-.024-.007-.015-.017a.785.785,0,0,1,.263-.166.343.343,0,0,0-.122-.179c-.089-.056-.2.046-.251.108C47.4,73.55,47.384,73.54,47.387,73.53Z" transform="translate(-45.04 -66.656)" fill="#c39368"/>
        <g id="Group_14238" data-name="Group 14238" transform="translate(0 0.008)" opacity="0.5">
          <path id="Path_27822" data-name="Path 27822" d="M41.535,28.888s-.049.5-.325.618a1.139,1.139,0,0,0-.074-1.016c.093.4.179,1.1-.247,1.439-.253.181.155.068.47-.271.235-.253-.452,1.337-2.585,1.428s-2.277-.452-3.561-.614a4.538,4.538,0,0,1-1.936-.418.841.841,0,0,0-.118.413,1.568,1.568,0,0,0-.586.529,2.468,2.468,0,0,1,1.61-.271c1.211.217,1.609.524,1.175,1.211a4.78,4.78,0,0,0-.524,2.368c.054.38-.109.181-.416-.343s-.452,1.229-.6.018c-.145-.777-.542.036-.47,1.048s-.614.271-.524-.922a2.381,2.381,0,0,0-.416.831s-.289-.379.109-1.193-.344-.09-.488.416-.434-.145-.271-1.374c0-.013,0-.025,0-.038a2.673,2.673,0,0,0,.256,2.289l.114-.537a1.989,1.989,0,0,0,.5,1.464,1.575,1.575,0,0,1,.049-.813c.2,1.447,2.5,2.277,3.285,2.244l.094.028-.01-.017a2.131,2.131,0,0,1-1.374-1.3c-.41.277-.88-.193-.843-.8s.578-.735.771-.41.506.711.482.518a3.71,3.71,0,0,1,.12-2.109,7.591,7.591,0,0,0,.711-2.434,5.446,5.446,0,0,0,4.895-.148C42.288,29.455,41.535,28.888,41.535,28.888Z" transform="translate(-31.641 -28.489)" fill="#7c001f"/>
        </g>
        <g id="Group_14239" data-name="Group 14239" transform="translate(4.513 4.307)">
          <path id="Path_27823" data-name="Path 27823" d="M63.335,57.332a1.475,1.475,0,1,0,1.412,1.473A1.445,1.445,0,0,0,63.335,57.332Zm0,2.8A1.33,1.33,0,1,1,64.6,58.805,1.3,1.3,0,0,1,63.335,60.134Z" transform="translate(-61.923 -57.332)"/>
        </g>
        <g id="Group_14240" data-name="Group 14240" transform="translate(8.148 4.073)">
          <path id="Path_27824" data-name="Path 27824" d="M87.533,55.765a1.493,1.493,0,1,0,1.22,1.468A1.363,1.363,0,0,0,87.533,55.765Zm0,2.8a1.362,1.362,0,1,1,1.086-1.334A1.231,1.231,0,0,1,87.533,58.567Z" transform="translate(-86.313 -55.765)"/>
        </g>
        <rect id="Rectangle_4010" data-name="Rectangle 4010" width="1.033" height="0.134" transform="matrix(0.967, -0.253, 0.253, 0.967, 9.49, 5.521)"/>
        <rect id="Rectangle_4011" data-name="Rectangle 4011" width="1.947" height="0.134" transform="translate(2.687 6.183) rotate(-15.002)"/>
        <path id="Path_27825" data-name="Path 27825" d="M81,65.434a.554.554,0,0,0-.415-.279.649.649,0,0,0-.45.236l-.1-.085a.791.791,0,0,1,.558-.285.678.678,0,0,1,.52.335Z" transform="translate(-72.819 -59.568)"/>
        <path id="Path_27826" data-name="Path 27826" d="M64.16,58.3a1.33,1.33,0,1,0,1.267,1.329A1.3,1.3,0,0,0,64.16,58.3Z" transform="translate(-58.235 -53.851)" fill="#d1f4ff" opacity="0.3"/>
        <path id="Path_27827" data-name="Path 27827" d="M88.3,56.664A1.362,1.362,0,1,0,89.385,58,1.231,1.231,0,0,0,88.3,56.664Z" transform="translate(-78.931 -52.457)" fill="#d1f4ff" opacity="0.3"/>
        <path id="Path_27828" data-name="Path 27828" d="M73.048,84.28a.214.214,0,0,1-.041.031l-.046.023a.617.617,0,0,1-.1.029l-.051.008a.377.377,0,0,1-.051.005h-.1a.811.811,0,0,1-.1-.009c-.034,0-.068-.008-.1-.014-.066-.016-.132-.032-.2-.051h-.014c-.007,0-.012,0-.018,0s-.011.005-.017.008a.076.076,0,0,0-.017.013c-.012.01-.024.023-.04.037a.079.079,0,0,1-.033.017l-.01,0H72.1a.056.056,0,0,1-.02-.009.085.085,0,0,1-.023-.027.262.262,0,0,1-.013-.026.5.5,0,0,1-.016-.052.69.69,0,0,1-.018-.105c.014.033.027.066.042.1a.431.431,0,0,0,.025.045.141.141,0,0,0,.014.02.05.05,0,0,0,.013.012s0,0,0,0h0l0,0s.008-.006.012-.009.02-.025.034-.039a.137.137,0,0,1,.023-.021.106.106,0,0,1,.029-.017.114.114,0,0,1,.033-.009h.039c.065.013.129.028.193.043.032.007.065.01.1.016s.065.013.1.014l.1.007a.291.291,0,0,0,.049,0h.049c.033,0,.064-.007.1-.01A.424.424,0,0,0,73.048,84.28Z" transform="translate(-65.99 -75.858)" fill="#e0e0e0"/>
        <path id="Path_27829" data-name="Path 27829" d="M72.265,59.223a1.266,1.266,0,0,1,.939,1.3C73.216,60.84,73.7,59.437,72.265,59.223Z" transform="translate(-66.21 -54.634)" fill="#fff"/>
        <path id="Path_27830" data-name="Path 27830" d="M94.28,57.583a1.266,1.266,0,0,1,.94,1.3C95.231,59.2,95.719,57.8,94.28,57.583Z" transform="translate(-84.944 -53.239)" fill="#fff"/>
        <path id="Path_27831" data-name="Path 27831" d="M62.484,94.205l-1.208-.745-.042.3-.017-.015-.724,3.966L59.1,93.531l-.07-.239-1.391.576a8.92,8.92,0,0,0,1.124,1.643c-.379,1.18-.464,1.475-.464,1.475l2.191,1.391.1.225,1.672-1.9-.716-.829Z" transform="translate(-53.763 -83.626)" fill="#fff"/>
        <path id="Path_27832" data-name="Path 27832" d="M115.973,93.122l.551-.522a1.16,1.16,0,0,1,.1-.754,1.724,1.724,0,0,0,.435-.793c.135-.512.619-.135.377.377-.174.4-.116.348.242.019s1.325-1.034,1.624-.928c.145.058-.1.319-.512.648a2.964,2.964,0,0,0-.551.522s.068.126.271-.039,1.17-.754,1.412-.57-.232.319-.551.57-.686.58-.686.58,1.073-.657,1.508-.474c.261.135-.058.387-.474.493a3.3,3.3,0,0,0-.783.329s1.257-.01,1.247.261-1.412.3-1.412.3-.87,1.1-1.683.57c-.28.29-.744.783-.744.783A1.875,1.875,0,0,1,115.973,93.122Z" transform="translate(-103.403 -81.259)" fill="#f4d9bf"/>
        <g id="Group_14241" data-name="Group 14241" transform="translate(13.66 10.245)">
          <path id="Path_27833" data-name="Path 27833" d="M129.56,97.178a1.2,1.2,0,0,1,.154.1,1.584,1.584,0,0,1,.143.125,1.679,1.679,0,0,1,.146.163c.022.03.045.059.065.09a1.072,1.072,0,0,1,.056.092.819.819,0,0,1,.046.09.774.774,0,0,1,.034.083.849.849,0,0,1,.036.13c.006.032.009.05.009.05l-.023-.046c-.007-.015-.014-.032-.024-.052s-.024-.041-.036-.065-.029-.048-.044-.075-.034-.054-.052-.082-.04-.056-.059-.085-.043-.057-.064-.086c-.044-.057-.09-.112-.135-.163s-.088-.1-.125-.138-.068-.074-.091-.1Z" transform="translate(-128.626 -97.178)" fill="#c39368"/>
          <path id="Path_27834" data-name="Path 27834" d="M124.605,98.24a1.462,1.462,0,0,1-.038.183l-.01-.031a.968.968,0,0,1,.13.091.952.952,0,0,1,.114.11.641.641,0,0,1,.09.133.36.36,0,0,1,.029.075.279.279,0,0,1,.01.079.638.638,0,0,0-.036-.068.314.314,0,0,0-.021-.031.27.27,0,0,0-.022-.03,1.151,1.151,0,0,0-.1-.111c-.07-.071-.146-.139-.223-.2l-.018-.015.008-.016A1.447,1.447,0,0,1,124.605,98.24Z" transform="translate(-124.328 -98.082)" fill="#c39368"/>
          <path id="Path_27835" data-name="Path 27835" d="M123.865,104.851s-.047.014-.11.04c-.032.013-.068.03-.105.049a.838.838,0,0,0-.11.07.479.479,0,0,0-.052.041c-.017.014-.031.03-.047.044s-.028.031-.041.045-.024.029-.035.043-.021.026-.029.038l-.021.031-.02.027s0-.012.007-.032l.009-.037a.285.285,0,0,1,.018-.046.292.292,0,0,1,.026-.053.412.412,0,0,1,.037-.055.429.429,0,0,1,.048-.053.521.521,0,0,1,.056-.048.49.49,0,0,1,.062-.04.513.513,0,0,1,.064-.03.533.533,0,0,1,.121-.032A.366.366,0,0,1,123.865,104.851Z" transform="translate(-123.295 -103.703)" fill="#c39368"/>
        </g>
        <g id="Group_14242" data-name="Group 14242" transform="translate(12.569 11.475)">
          <path id="Path_27836" data-name="Path 27836" d="M116.388,105.432l0,0-.41.388a1.875,1.875,0,0,0,.368,1.373s.3-.318.562-.593A1.817,1.817,0,0,1,116.388,105.432Z" transform="translate(-115.972 -105.428)" fill="#f7f9fc"/>
        </g>
        <g id="Group_14243" data-name="Group 14243" transform="translate(12.569 11.662)">
          <path id="Path_27837" data-name="Path 27837" d="M116.186,106.684l-.213.2a1.874,1.874,0,0,0,.368,1.373l.173-.184A2.953,2.953,0,0,1,116.186,106.684Z" transform="translate(-115.972 -106.684)" fill="#a3a7ad"/>
        </g>
        <g id="Group_14244" data-name="Group 14244" transform="translate(1.749 11.276)">
          <path id="Path_27838" data-name="Path 27838" d="M47.922,109.769a3.138,3.138,0,0,1,.5-.851,17.67,17.67,0,0,0-2.261-.035,1.054,1.054,0,0,0-.614-.036s-.343-2.241-.47-3.4a1.469,1.469,0,0,0-1.048-1.356c-.717-.066-.717.85-.572,1.862s.862,4.094.934,4.5.235.47.461.515.759-.045,1.7.054c.833.088,1.414.116,1.535.121A1.342,1.342,0,0,1,47.922,109.769Z" transform="translate(-43.379 -104.09)" fill="#fff"/>
          <path id="Path_27839" data-name="Path 27839" d="M74.074,137.374a2.178,2.178,0,0,0-.373-.889h-.016a3.137,3.137,0,0,0-.5.851,1.342,1.342,0,0,0,.162,1.378h.024S74.156,137.887,74.074,137.374Z" transform="translate(-68.642 -131.656)" fill="#757b87"/>
        </g>
        <g id="Group_14245" data-name="Group 14245" transform="translate(5.335 9.707)">
          <path id="Path_27840" data-name="Path 27840" d="M75.972,94.832l.157-.861-.459-.408-.508.711.632.8Z" transform="translate(-74.011 -93.563)" fill="#eeeff4"/>
          <path id="Path_27841" data-name="Path 27841" d="M68.5,94.591l-.609-.64-.45.14.382,1.143.192.291Z" transform="translate(-67.44 -93.893)" fill="#eeeff4"/>
        </g>
        <g id="Group_14246" data-name="Group 14246" transform="translate(5.717 10.404)">
          <path id="Path_27842" data-name="Path 27842" d="M73.166,98.93l-.534-.674L72.6,98.3l-.059-.062-.35.676.394.523-.162,1.119.454,1.359.318-1.739-.244-.739Z" transform="translate(-71.863 -98.242)" fill="#00c39a"/>
          <path id="Path_27843" data-name="Path 27843" d="M70.326,102.6l-.134.259L70,102.564l.559,1.674.162-1.119Z" transform="translate(-70 -101.919)" fill="#dedee0"/>
          <path id="Path_27844" data-name="Path 27844" d="M77.6,102.32l-.1-.125-.216.511.244.739.249-1.365Z" transform="translate(-76.202 -101.508)" fill="#dedee0"/>
        </g>
        <path id="Path_27845" data-name="Path 27845" d="M61.68,99.566c-.044-.32-.263-1.553-.347-2.022a.108.108,0,0,0,.029-.092.89.89,0,0,0-.333-.654,1.054,1.054,0,0,0-.847-.042l-.283-2.13a.108.108,0,0,0-.215.028l.287,2.162a.837.837,0,0,0-.6.784.108.108,0,0,0,.049.085c.014.462.059,1.9.1,2.268.054.443.235.352.578.389.009.154.018.172.154.172s.208.009.208-.2.018-.3-.1-.316a.242.242,0,0,0-.226.09s-.407,0-.452-.289c-.051-.453-.12-1.67-.145-2.117a.109.109,0,0,0,.045-.092c0-.018-.01-.458.569-.6.389-.1.616-.1.757-.007a.7.7,0,0,1,.238.506.108.108,0,0,0,.057.079c.054.364.193,1.3.258,1.82.036.362-.009.461-.2.542l-.144.045a.16.16,0,0,0-.19-.045c-.127.045-.135.127-.1.343s.172.163.316.135.117-.045.072-.235C61.626,100.036,61.734,99.964,61.68,99.566Z" transform="translate(-55.234 -84.681)" fill="#a3a7ad" style="mix-blend-mode: multiply;isolation: isolate"/>
        <g id="Group_14247" data-name="Group 14247" transform="translate(4.024 9.689)">
          <path id="Path_27846" data-name="Path 27846" d="M59.062,113.451s.09,1.726.154,2.286c.045.289.452.289.452.289a.242.242,0,0,1,.226-.09c.117.018.1.108.1.316s-.072.2-.208.2-.145-.018-.154-.172c-.344-.036-.524.054-.579-.389s-.108-2.413-.108-2.413Z" transform="translate(-58.899 -110.469)" fill="#d9dadd"/>
          <path id="Path_27847" data-name="Path 27847" d="M68.712,112.474s.2,1.319.28,1.97c.036.362-.009.461-.2.542l-.145.045a.16.16,0,0,0-.19-.045c-.127.045-.136.126-.1.343s.172.163.316.136.117-.045.072-.235c.407-.135.515-.208.461-.605s-.379-2.205-.379-2.205Z" transform="translate(-66.895 -109.591)" fill="#d9dadd"/>
          <path id="Path_27848" data-name="Path 27848" d="M61.161,95.836a.108.108,0,0,1-.107-.094l-.289-2.178a.108.108,0,0,1,.215-.029l.289,2.178a.108.108,0,0,1-.093.122Z" transform="translate(-60.447 -93.441)" fill="#3f3e3d"/>
          <path id="Path_27849" data-name="Path 27849" d="M58.748,108.957a.108.108,0,0,1-.108-.1.862.862,0,0,1,.732-.824,1.137,1.137,0,0,1,.93.022.889.889,0,0,1,.333.654.108.108,0,1,1-.214.034.7.7,0,0,0-.238-.506c-.142-.094-.369-.092-.757.007-.579.146-.57.585-.569.6a.109.109,0,0,1-.1.113Z" transform="translate(-58.639 -105.786)" fill="#3f3e3d"/>
        </g>
        <path id="Path_27850" data-name="Path 27850" d="M89.086,102.556c-.009-.179-.041-.764-.1-1.349A8.056,8.056,0,0,0,88.81,100l-.11-.016a.106.106,0,0,1,.023.038c.016.049-.036.115-.088.176a19.206,19.206,0,0,1,.234,2.353.764.764,0,0,0-.515.8c.005.445.282.8.617.8a.728.728,0,0,0,.6-.813A.789.789,0,0,0,89.086,102.556Z" transform="translate(-79.901 -89.317)" fill="#a3a7ad" style="mix-blend-mode: multiply;isolation: isolate"/>
        <g id="Group_14248" data-name="Group 14248" transform="translate(8.349 10.222)">
          <path id="Path_27851" data-name="Path 27851" d="M88.452,98.571c-.142-1.486-.295-1.524-.4-1.549-.046-.011-.136-.011-.213.122h0c.066.039.131.08.2.121s.126.055.146.116-.036.115-.088.176a19.468,19.468,0,0,1,.238,2.429.108.108,0,0,0,.108.1h0a.109.109,0,0,0,.1-.113C88.551,99.97,88.519,99.27,88.452,98.571Z" transform="translate(-87.816 -97.018)" fill="#3f3e3d"/>
          <path id="Path_27852" data-name="Path 27852" d="M88.879,117.164a.728.728,0,0,1-.6.813c-.336,0-.612-.354-.617-.8a.728.728,0,0,1,.6-.813C88.6,116.361,88.874,116.719,88.879,117.164Z" transform="translate(-87.662 -113.481)" fill="#d9dadd"/>
          <path id="Path_27853" data-name="Path 27853" d="M89.667,119.031c0,.3-.158.547-.352.547s-.352-.245-.352-.547.158-.547.352-.547S89.667,118.729,89.667,119.031Z" transform="translate(-88.768 -115.285)" fill="#eeeff4"/>
          <path id="Path_27854" data-name="Path 27854" d="M90.788,121.144c0,.1-.051.178-.114.178s-.114-.08-.114-.178.051-.178.114-.178S90.788,121.046,90.788,121.144Z" transform="translate(-90.128 -117.397)" fill="#a3a7ad" opacity="0.5" style="mix-blend-mode: multiply;isolation: isolate"/>
        </g>
        <g id="Group_14249" data-name="Group 14249" transform="translate(8.972 10.716)" opacity="0.5" style="mix-blend-mode: multiply;isolation: isolate">
          <path id="Path_27855" data-name="Path 27855" d="M95.511,102.366a3.662,3.662,0,0,0,.253.774c.253.379-.265.982-.988,1.681s-1.323.83-1.663-.313c-.458-1.542-.671-1.987-.9-2.878-.132-.512-.259-.968-.327-1.264-.06-.021.006-.016-.049-.03.156.657.519,2.191.7,2.967.222.947.361,2,.376,2.11a.9.9,0,0,0,1.152.373,6.8,6.8,0,0,0,2.478-2.327A1.735,1.735,0,0,1,95.511,102.366Z" transform="translate(-91.838 -100.336)" fill="#a3a7ad"/>
          <path id="Path_27856" data-name="Path 27856" d="M102.988,113.464c-.154.441-.176.694.011.364.154-.628.32-.9.276-.507-.011.441.033.926.1.066a3.732,3.732,0,0,1,.277-.942c-.187.293-.312.5-.312.5s-.209-.4-.5-.95a1.626,1.626,0,0,0,.062.179A1.5,1.5,0,0,1,102.988,113.464Z" transform="translate(-101.199 -110.258)" fill="#a3a7ad"/>
        </g>
        <g id="Group_14250" data-name="Group 14250" transform="translate(2.01 11.556)" opacity="0.5" style="mix-blend-mode: multiply;isolation: isolate">
          <path id="Path_27857" data-name="Path 27857" d="M51.682,111.325c-.289.627.12-.048.337-.41s.289-.145.241.241.121-.554.482-.506,1.085-.217,1.663-.169a.43.43,0,0,0,.065,0,12.634,12.634,0,0,0-1.662,0,1.054,1.054,0,0,0-.614-.036s-.343-2.241-.47-3.4a1.581,1.581,0,0,0-.532-1.079,9.249,9.249,0,0,1,.562,2.73C52,110.6,51.971,110.7,51.682,111.325Z" transform="translate(-50.288 -105.969)" fill="#a3a7ad"/>
          <path id="Path_27858" data-name="Path 27858" d="M49.8,125.506a2.594,2.594,0,0,0-.675,1.222c-.145.482-.385.385-1.349.337s-1.542.145-1.759-.434c-.191-.509-.754-2.695-.887-3.214.266,1.317.694,3.175.749,3.485.072.407.235.47.461.515s.759-.045,1.7.054c.833.088,1.414.116,1.535.121a1.342,1.342,0,0,1-.162-1.378A3.261,3.261,0,0,1,49.8,125.506Z" transform="translate(-45.129 -120.817)" fill="#a3a7ad"/>
        </g>
        <g id="Group_14251" data-name="Group 14251" transform="translate(5.336 9.876)" opacity="0.5" style="mix-blend-mode: multiply;isolation: isolate">
          <path id="Path_27859" data-name="Path 27859" d="M68.391,95.113c-.135.305-.384.842-.424.753-.08-.2-.312-.833-.434-1.168l-.093.029.382,1.143.192.29.484-.935Z" transform="translate(-67.44 -94.697)" fill="#a3a7ad"/>
        </g>
        <g id="Group_14252" data-name="Group 14252" transform="translate(6.486 10.03)" opacity="0.5" style="mix-blend-mode: multiply;isolation: isolate">
          <path id="Path_27860" data-name="Path 27860" d="M76.034,95.731a2.49,2.49,0,0,1-.266.918l-.532-.633-.074.1.632.8.178-.241.157-.861Z" transform="translate(-75.162 -95.731)" fill="#a3a7ad"/>
        </g>
        <g id="Group_14253" data-name="Group 14253" transform="translate(6.043 11.029)" style="mix-blend-mode: multiply;isolation: isolate">
          <path id="Path_27861" data-name="Path 27861" d="M73.166,102.5l-.05-.063c-.1.291-.22.548-.443.409a3.236,3.236,0,0,1-.463-.4l-.02.039.394.523-.106.732h0s.125-.59.261-.624.452.631.452.631l-.244-.739Z" transform="translate(-72.19 -102.436)" fill="#00c39a"/>
        </g>
        <g id="Group_14254" data-name="Group 14254" transform="translate(7.48 14.583)">
          <path id="Path_27862" data-name="Path 27862" d="M83.53,127.525s-.268-.656-.355-.875-.093-.3.044-.334.23-.082.312.109.35.968.35.968Z" transform="translate(-82.921 -126.284)" fill="#3f3e3d"/>
          <path id="Path_27863" data-name="Path 27863" d="M82.2,128.492a.072.072,0,0,1-.067-.045s-.147-.363-.227-.545c-.063-.142-.092-.238-.058-.31a.137.137,0,0,1,.092-.074c.128-.031.606-.118.627-.122a.072.072,0,0,1,.026.142s-.491.09-.615.119a.509.509,0,0,0,.061.185c.081.184.228.546.229.549a.072.072,0,0,1-.04.094A.073.073,0,0,1,82.2,128.492Z" transform="translate(-81.832 -127.23)" fill="#00c39a"/>
        </g>
        <path id="Path_27864" data-name="Path 27864" d="M73.248,134.558s.6-.051.7-.057.063-.3.133-.507.317-.374.735-.507.462-.165.728,0a.735.735,0,0,1,.424.773.4.4,0,0,1-.013.57c.222.215.177.418.063.526.114.285-.057.494-.355.557-.2.044-.361-.025-.076-.462.012-.057-.083.038-.266.2s-.405.437-.69.431a.906.906,0,0,1-.7-.386c-.443.013-.773.019-.773.019A1.243,1.243,0,0,1,73.248,134.558Z" transform="translate(-66.888 -117.735)" fill="#f4d9bf"/>
        <g id="Group_14255" data-name="Group 14255" transform="translate(8.368 15.846)">
          <path id="Path_27865" data-name="Path 27865" d="M87.789,134.754a.515.515,0,0,1,.09.073.417.417,0,0,1,.076.1.149.149,0,0,1,.023.079.069.069,0,0,1-.006.028l0,.007s0,.006,0,0v0l0,.008a.162.162,0,0,0-.011.03.486.486,0,0,0-.015.058c0,.021-.009.042-.013.062l-.019.113-.017.113a.439.439,0,0,1-.025-.114.706.706,0,0,1,0-.12.572.572,0,0,1,.008-.068.512.512,0,0,1,.017-.073.209.209,0,0,1,.014-.033l0-.008v0c0-.007,0,0,0,0h0a.006.006,0,0,0,0,0,.11.11,0,0,0-.01-.047.8.8,0,0,0-.051-.1Z" transform="translate(-87.789 -134.754)" fill="#c39368"/>
          <path id="Path_27866" data-name="Path 27866" d="M88.72,136.682a.646.646,0,0,1,.107.031.965.965,0,0,1,.1.045c.038.017.075.041.114.064a1.27,1.27,0,0,1,.106.077.516.516,0,0,1,.044.042c.014.013.027.027.038.039a.263.263,0,0,1,.028.037l.019.03.015.027-.026-.017-.028-.02c-.011-.007-.021-.017-.036-.026s-.059-.038-.092-.061-.07-.046-.107-.068l-.107-.069-.092-.063C88.755,136.712,88.72,136.682,88.72,136.682Z" transform="translate(-88.581 -136.395)" fill="#c39368"/>
          <path id="Path_27867" data-name="Path 27867" d="M89.482,140.44a.781.781,0,0,1,.04.1,1.637,1.637,0,0,1,.059.216,1.618,1.618,0,0,1,.029.222.754.754,0,0,1,0,.1.768.768,0,0,1-.041-.1,1.633,1.633,0,0,1-.06-.216,1.608,1.608,0,0,1-.029-.222A.744.744,0,0,1,89.482,140.44Z" transform="translate(-89.228 -139.593)" fill="#c39368"/>
          <path id="Path_27868" data-name="Path 27868" d="M89.844,141.884a.3.3,0,0,1,.073.005.571.571,0,0,1,.148.049.772.772,0,0,1,.072.044.566.566,0,0,1,.056.048.346.346,0,0,1,.044.059.422.422,0,0,1-.067-.025c-.039-.015-.088-.037-.137-.062a1.238,1.238,0,0,1-.131-.075A.526.526,0,0,1,89.844,141.884Z" transform="translate(-89.538 -140.821)" fill="#c39368"/>
          <path id="Path_27869" data-name="Path 27869" d="M90.23,145.193a.338.338,0,0,1,.078.006.573.573,0,0,1,.16.054.513.513,0,0,1,.077.049.3.3,0,0,1,.058.058.162.162,0,0,1,.028.051c0,.014.006.021.006.021l-.017-.013a.413.413,0,0,0-.045-.029l-.065-.035-.076-.038c-.051-.027-.1-.055-.142-.079A.608.608,0,0,1,90.23,145.193Z" transform="translate(-89.866 -143.637)" fill="#c39368"/>
        </g>
        <g id="Group_14256" data-name="Group 14256" transform="translate(6.173 16.792)">
          <path id="Path_27870" data-name="Path 27870" d="M73.619,141.1l-.37.031a1.243,1.243,0,0,0-.089,1.159l.366-.008A2.078,2.078,0,0,1,73.619,141.1Z" transform="translate(-73.061 -141.1)" fill="#f7f9fc"/>
        </g>
        <g id="Group_14257" data-name="Group 14257" transform="translate(6.173 16.814)">
          <path id="Path_27871" data-name="Path 27871" d="M73.352,141.249l-.1.009a1.243,1.243,0,0,0-.089,1.159l.1,0A1.811,1.811,0,0,1,73.352,141.249Z" transform="translate(-73.061 -141.249)" fill="#a3a7ad"/>
        </g>
      </g>
    </g>
  </g>
</svg>
