<svg xmlns="http://www.w3.org/2000/svg" width="37.75" height="18.111" viewBox="0 0 37.75 18.111">
  <g id="Dental" transform="translate(0)">
    <g id="Group_14327" data-name="Group 14327" transform="translate(0 0)">
      <path id="Path_27923" data-name="Path 27923" d="M21.947,383.81a19.243,19.243,0,0,0-6.554,2.863s2.531,6.253,3.011,6.519c.131.073.707.5,1.473,1.089A20.844,20.844,0,0,1,21.947,383.81Z" transform="translate(-14.022 -381.89)" fill="#af0e29"/>
      <path id="Path_27924" data-name="Path 27924" d="M52.783,384.22c-.891-.528-1.611-.969-1.732-1.086-.351-.34-11.565.234-18.035-.3a16.344,16.344,0,0,0-5.007.383,20.844,20.844,0,0,0-2.07,10.471c2.042,1.562,5.444,4.234,5.444,4.234l16.5-1.322,1.972-2.233c1-1.971,1.808-4.061,2.6-6.041A7.1,7.1,0,0,0,52.783,384.22Z" transform="translate(-20.083 -381.294)" fill="#f25f7e"/>
      <path id="Path_27925" data-name="Path 27925" d="M85.646,386.2a7.1,7.1,0,0,1-.327,4.1c-.792,1.98-1.6,4.07-2.6,6.041l6.919-7.834S87.335,387.2,85.646,386.2Z" transform="translate(-52.947 -383.269)" fill="#af0e29"/>
      <g id="Group_14326" data-name="Group 14326" transform="translate(4.165 2.877)">
        <g id="Group_14310" data-name="Group 14310" transform="translate(0.81 4.479)">
          <g id="Group_14302" data-name="Group 14302">
            <g id="Group_14296" data-name="Group 14296">
              <path id="Path_27926" data-name="Path 27926" d="M24.471,399.324a1.81,1.81,0,0,1,.317-1.929c.383-.4,1.168-.535,1.153.233q-.02,1.025-.04,2.049C25.876,400.994,24.716,399.86,24.471,399.324Z" transform="translate(-24.159 -396.914)" fill="#fff"/>
              <path id="Path_27927" data-name="Path 27927" d="M25.337,400.232c-.469,0-1.069-.687-1.24-1.061a1.967,1.967,0,0,1,.346-2.1,1.194,1.194,0,0,1,.814-.374.6.6,0,0,1,.435.164.724.724,0,0,1,.188.553l-.039,2.049C25.828,400.132,25.519,400.232,25.337,400.232Zm-.079-3.219a.861.861,0,0,0-.573.273,1.647,1.647,0,0,0-.288,1.758c.161.352.683.872.94.872.151,0,.174-.32.177-.458l.04-2.049a.443.443,0,0,0-.094-.326A.277.277,0,0,0,25.257,397.013Z" transform="translate(-23.935 -396.697)" fill="#bcbec0"/>
            </g>
            <g id="Group_14297" data-name="Group 14297" transform="translate(1.39 0.463)">
              <path id="Path_27928" data-name="Path 27928" d="M29.385,398.733c.027.523-.548,1.3,0,2.547a1.633,1.633,0,0,1-1.457-.413,4.616,4.616,0,0,1-.308-1.481C27.587,398.431,29.324,397.561,29.385,398.733Z" transform="translate(-27.456 -398.011)" fill="#fff"/>
              <path id="Path_27929" data-name="Path 27929" d="M28.83,401.256a1.787,1.787,0,0,1-1.243-.494,4.582,4.582,0,0,1-.356-1.587,1.247,1.247,0,0,1,.41-.907,1.52,1.52,0,0,1,1-.474.664.664,0,0,1,.68.714,2.046,2.046,0,0,1-.1.594,2.608,2.608,0,0,0,.084,1.9l.076.174-.192.041A1.706,1.706,0,0,1,28.83,401.256Zm-.186-3.146a1.216,1.216,0,0,0-.768.378.943.943,0,0,0-.317.677,5.022,5.022,0,0,0,.266,1.38,1.478,1.478,0,0,0,1.108.391,2.931,2.931,0,0,1-.024-1.909,1.857,1.857,0,0,0,.088-.5C28.975,398.11,28.725,398.11,28.644,398.11Z" transform="translate(-27.231 -397.794)" fill="#bcbec0"/>
            </g>
            <g id="Group_14298" data-name="Group 14298" transform="translate(2.942 0.899)">
              <path id="Path_27930" data-name="Path 27930" d="M32.6,402.376a.97.97,0,0,1-.967-.485,2.637,2.637,0,0,1-.3-1.077,1.6,1.6,0,0,1,.13-1.123,1.383,1.383,0,0,1,1.226-.483c.361.033.436.224.446.583l.056,2.012a.442.442,0,0,1-.027.206A1.01,1.01,0,0,1,32.6,402.376Z" transform="translate(-31.134 -399.044)" fill="#fff"/>
              <path id="Path_27931" data-name="Path 27931" d="M32.231,402.333a1.178,1.178,0,0,1-.96-.577,2.787,2.787,0,0,1-.322-1.139,1.7,1.7,0,0,1,.156-1.23,1.5,1.5,0,0,1,1.225-.56,1.52,1.52,0,0,1,.152.007c.505.046.584.381.594.736l.056,2.012a.589.589,0,0,1-.042.278,1.155,1.155,0,0,1-.678.455A.877.877,0,0,1,32.231,402.333Zm.1-3.19a1.181,1.181,0,0,0-.952.418,1.468,1.468,0,0,0-.1,1.016,2.552,2.552,0,0,0,.278,1.015.812.812,0,0,0,.791.411.9.9,0,0,0,.451-.279.351.351,0,0,0,.012-.135l-.056-2.012c-.009-.35-.076-.409-.3-.429C32.412,399.145,32.372,399.143,32.331,399.143Z" transform="translate(-30.909 -398.827)" fill="#bcbec0"/>
            </g>
            <g id="Group_14299" data-name="Group 14299" transform="translate(4.744 1.302)">
              <path id="Path_27932" data-name="Path 27932" d="M38.2,400.634c.178.845,0,1.575.233,2.406.188.677.128,1.2-.735,1.215a1.79,1.79,0,0,1-2-1.435,4.979,4.979,0,0,1,.072-2.54.168.168,0,0,1,.052-.1.182.182,0,0,1,.144-.01Z" transform="translate(-35.405 -400.001)" fill="#fff"/>
              <path id="Path_27933" data-name="Path 27933" d="M37.413,404.2a1.94,1.94,0,0,1-2.1-1.562,5.1,5.1,0,0,1,.073-2.61.313.313,0,0,1,.112-.189.283.283,0,0,1,.169-.052.566.566,0,0,1,.109.013l2.337.488.021.1a5.854,5.854,0,0,1,.1,1.157,4.763,4.763,0,0,0,.132,1.24,1.273,1.273,0,0,1-.064,1.1,1.015,1.015,0,0,1-.826.318Zm-1.707-4.091a4.824,4.824,0,0,0-.07,2.464,1.637,1.637,0,0,0,1.836,1.311.718.718,0,0,0,.57-.193c.118-.151.121-.421.009-.823a5.084,5.084,0,0,1-.143-1.316,6.134,6.134,0,0,0-.073-1l-2.126-.443Z" transform="translate(-35.18 -399.784)" fill="#bcbec0"/>
            </g>
            <g id="Group_14300" data-name="Group 14300" transform="translate(7.468 1.565)">
              <path id="Path_27934" data-name="Path 27934" d="M42.328,404.544a4.088,4.088,0,0,1-.235-2.415c.009-.476-.184-.866.306-1.158.756-.448,1.735.044,2.532.052a.351.351,0,0,1,.17.03c.147.081.138.095.138,2.693,0,.461-.092.575-.466.746C43.728,404.972,42.91,405.5,42.328,404.544Z" transform="translate(-41.864 -400.625)" fill="#fff"/>
              <path id="Path_27935" data-name="Path 27935" d="M42.933,405.018a1.1,1.1,0,0,1-.971-.611,3.029,3.029,0,0,1-.29-1.935c.014-.185.029-.375.032-.563a3.08,3.08,0,0,0-.016-.309.872.872,0,0,1,.4-.981,1.616,1.616,0,0,1,.846-.212,5.011,5.011,0,0,1,.96.127,4.6,4.6,0,0,0,.814.113.5.5,0,0,1,.249.05c.221.122.221.122.221,2.4v.434a.784.784,0,0,1-.559.889c-.106.048-.21.1-.311.146A3.489,3.489,0,0,1,42.933,405.018Zm0-4.294a1.286,1.286,0,0,0-.675.165c-.276.164-.274.338-.244.685a3.114,3.114,0,0,1,.016.34c0,.2-.019.391-.033.58a2.757,2.757,0,0,0,.246,1.751.778.778,0,0,0,.689.455,3.308,3.308,0,0,0,1.23-.421c.1-.049.208-.1.315-.148.318-.146.374-.2.372-.6V403.1a16.292,16.292,0,0,0-.044-2.116l-.011-.006a.3.3,0,0,0-.091-.008,4.881,4.881,0,0,1-.876-.12A4.821,4.821,0,0,0,42.935,400.724Z" transform="translate(-41.639 -400.408)" fill="#bcbec0"/>
            </g>
            <g id="Group_14301" data-name="Group 14301" transform="translate(10.623 1.738)">
              <path id="Path_27936" data-name="Path 27936" d="M49.8,401.387a1.345,1.345,0,0,1,.711-.151c1.843-.049,1.913-.077,2.1.033a.686.686,0,0,1,.278.611c0,.329.1,3.255,0,3.277-.462.1-.516.36-1.214.215a8.04,8.04,0,0,1-1.767-.588C49.8,404.145,49.143,401.817,49.8,401.387Z" transform="translate(-49.345 -401.035)" fill="#fff"/>
              <path id="Path_27937" data-name="Path 27937" d="M51.81,405.357a1.944,1.944,0,0,1-.4-.046,8.206,8.206,0,0,1-1.8-.6l-.076-.036-.014-.08c-.018-.1-.05-.251-.088-.424-.3-1.373-.543-2.745.046-3.132a1.487,1.487,0,0,1,.8-.178l.846-.024c.386-.011.642-.019.816-.019a.9.9,0,0,1,.531.1.827.827,0,0,1,.359.745c0,.064,0,.225.01.443.073,2.945.04,2.952-.142,2.99a1.375,1.375,0,0,0-.33.119A1.176,1.176,0,0,1,51.81,405.357Zm-1.982-.9a7.9,7.9,0,0,0,1.655.541,1.607,1.607,0,0,0,.327.039.861.861,0,0,0,.414-.11,1.919,1.919,0,0,1,.3-.12c.04-.388,0-2.045-.017-2.7-.005-.221-.01-.384-.01-.449a.565.565,0,0,0-.2-.476c-.061-.035-.094-.054-.363-.054-.17,0-.423.008-.806.019l-.847.024a1.187,1.187,0,0,0-.623.124c-.457.3-.074,2.055.09,2.8C49.782,404.242,49.809,404.363,49.828,404.461Z" transform="translate(-49.118 -400.818)" fill="#bcbec0"/>
            </g>
          </g>
          <g id="Group_14309" data-name="Group 14309" transform="translate(14.048)">
            <g id="Group_14303" data-name="Group 14303" transform="translate(12.434)">
              <path id="Path_27938" data-name="Path 27938" d="M88.573,399.324a1.81,1.81,0,0,0-.317-1.929c-.383-.4-1.168-.535-1.152.233l.039,2.049C87.168,400.994,88.329,399.86,88.573,399.324Z" transform="translate(-86.939 -396.914)" fill="#fff"/>
              <path id="Path_27939" data-name="Path 27939" d="M87.258,400.232h0c-.183,0-.491-.1-.5-.768l-.04-2.049a.724.724,0,0,1,.188-.553.6.6,0,0,1,.435-.164,1.194,1.194,0,0,1,.814.374,1.967,1.967,0,0,1,.346,2.1C88.328,399.545,87.728,400.232,87.258,400.232Zm.079-3.219a.277.277,0,0,0-.2.07.442.442,0,0,0-.094.326l.04,2.049c0,.138.025.458.176.458.256,0,.779-.52.94-.872a1.648,1.648,0,0,0-.288-1.759A.862.862,0,0,0,87.338,397.013Z" transform="translate(-86.714 -396.697)" fill="#bcbec0"/>
            </g>
            <g id="Group_14304" data-name="Group 14304" transform="translate(10.833 0.463)">
              <path id="Path_27940" data-name="Path 27940" d="M83.457,398.733c-.027.523.548,1.3,0,2.547a1.632,1.632,0,0,0,1.456-.413,4.605,4.605,0,0,0,.308-1.481C85.255,398.431,83.518,397.561,83.457,398.733Z" transform="translate(-83.229 -398.011)" fill="#fff"/>
              <path id="Path_27941" data-name="Path 27941" d="M83.477,401.256h0a1.7,1.7,0,0,1-.367-.039l-.192-.041L83,401a2.61,2.61,0,0,0,.084-1.9,2.06,2.06,0,0,1-.1-.594.665.665,0,0,1,.68-.714,1.52,1.52,0,0,1,1,.474,1.246,1.246,0,0,1,.409.907,4.607,4.607,0,0,1-.351,1.582A1.789,1.789,0,0,1,83.477,401.256Zm-.1-.32c.034,0,.068,0,.1,0h0a1.472,1.472,0,0,0,1.009-.4,5.172,5.172,0,0,0,.261-1.375.941.941,0,0,0-.317-.677,1.216,1.216,0,0,0-.767-.378c-.082,0-.331,0-.353.413a1.885,1.885,0,0,0,.088.5A2.935,2.935,0,0,1,83.374,400.936Z" transform="translate(-82.919 -397.794)" fill="#bcbec0"/>
            </g>
            <g id="Group_14305" data-name="Group 14305" transform="translate(9.213 0.899)">
              <path id="Path_27942" data-name="Path 27942" d="M80.058,402.376a.971.971,0,0,0,.967-.485,2.65,2.65,0,0,0,.3-1.077,1.6,1.6,0,0,0-.13-1.123,1.383,1.383,0,0,0-1.226-.483c-.361.033-.436.224-.446.583q-.028,1.006-.056,2.012a.442.442,0,0,0,.027.206A1.007,1.007,0,0,0,80.058,402.376Z" transform="translate(-79.302 -399.044)" fill="#fff"/>
              <path id="Path_27943" data-name="Path 27943" d="M79.981,402.333h0a.877.877,0,0,1-.183-.019,1.152,1.152,0,0,1-.678-.455.585.585,0,0,1-.042-.278l.056-2.012c.01-.355.089-.689.594-.736a1.621,1.621,0,0,1,1.378.553,1.76,1.76,0,0,1,.156,1.23,2.78,2.78,0,0,1-.321,1.139A1.18,1.18,0,0,1,79.981,402.333Zm-.1-3.19c-.041,0-.081,0-.121.005-.222.021-.288.079-.3.429l-.056,2.012a.346.346,0,0,0,.012.136.9.9,0,0,0,.451.278.812.812,0,0,0,.791-.411,2.552,2.552,0,0,0,.278-1.015,1.468,1.468,0,0,0-.1-1.016A1.182,1.182,0,0,0,79.881,399.143Z" transform="translate(-79.078 -398.827)" fill="#bcbec0"/>
            </g>
            <g id="Group_14306" data-name="Group 14306" transform="translate(6.355 1.302)">
              <path id="Path_27944" data-name="Path 27944" d="M73.011,400.634c-.179.845,0,1.575-.233,2.406-.187.677-.128,1.2.735,1.215a1.789,1.789,0,0,0,2-1.435,4.979,4.979,0,0,0-.072-2.54.168.168,0,0,0-.052-.1.182.182,0,0,0-.144-.01Z" transform="translate(-72.528 -400.001)" fill="#fff"/>
              <path id="Path_27945" data-name="Path 27945" d="M73.352,404.2h-.066a1.016,1.016,0,0,1-.826-.318,1.271,1.271,0,0,1-.064-1.1,4.762,4.762,0,0,0,.132-1.24,5.886,5.886,0,0,1,.1-1.157l.022-.1,2.337-.488a.571.571,0,0,1,.109-.013.278.278,0,0,1,.169.052.308.308,0,0,1,.112.189,5.1,5.1,0,0,1,.073,2.61A1.939,1.939,0,0,1,73.352,404.2Zm-.424-3.647a6.182,6.182,0,0,0-.073,1,5.066,5.066,0,0,1-.143,1.316c-.112.4-.108.672.009.823a.72.72,0,0,0,.571.193,1.637,1.637,0,0,0,1.836-1.311,4.829,4.829,0,0,0-.07-2.464h0Z" transform="translate(-72.303 -399.784)" fill="#bcbec0"/>
            </g>
            <g id="Group_14307" data-name="Group 14307" transform="translate(3.373 1.565)">
              <path id="Path_27946" data-name="Path 27946" d="M68.534,404.544a4.085,4.085,0,0,0,.235-2.415c-.009-.476.185-.866-.306-1.158-.756-.448-1.734.044-2.532.052a.351.351,0,0,0-.17.03c-.147.081-.138.095-.138,2.693,0,.461.091.575.466.746C67.133,404.972,67.951,405.5,68.534,404.544Z" transform="translate(-65.459 -400.625)" fill="#fff"/>
              <path id="Path_27947" data-name="Path 27947" d="M67.479,405.018h0a3.489,3.489,0,0,1-1.374-.454c-.1-.048-.205-.1-.311-.146a.785.785,0,0,1-.559-.89V403.1c0-2.275,0-2.275.221-2.4a.505.505,0,0,1,.25-.05,4.6,4.6,0,0,0,.813-.113,5.011,5.011,0,0,1,.96-.127,1.618,1.618,0,0,1,.847.212.872.872,0,0,1,.4.981,2.962,2.962,0,0,0-.015.309c0,.188.018.378.032.563a3.029,3.029,0,0,1-.29,1.935A1.1,1.1,0,0,1,67.479,405.018Zm-1.873-4.039a16.2,16.2,0,0,0-.044,2.116v.434c0,.4.054.458.372.6.107.049.212.1.315.148a3.312,3.312,0,0,0,1.23.422h0a.778.778,0,0,0,.688-.455,2.757,2.757,0,0,0,.246-1.751c-.015-.189-.03-.384-.033-.58a3.226,3.226,0,0,1,.016-.34c.03-.347.032-.521-.244-.685a1.288,1.288,0,0,0-.675-.165,4.826,4.826,0,0,0-.894.12,4.881,4.881,0,0,1-.876.12.3.3,0,0,0-.091.008Z" transform="translate(-65.234 -400.408)" fill="#bcbec0"/>
            </g>
            <g id="Group_14308" data-name="Group 14308" transform="translate(0 1.738)">
              <path id="Path_27948" data-name="Path 27948" d="M60.77,401.387a1.344,1.344,0,0,0-.711-.151c-1.844-.049-1.914-.077-2.1.033a.688.688,0,0,0-.279.611c0,.329-.1,3.255,0,3.277.462.1.516.36,1.214.215a8.044,8.044,0,0,0,1.766-.588C60.77,404.145,61.424,401.817,60.77,401.387Z" transform="translate(-57.465 -401.035)" fill="#fff"/>
              <path id="Path_27949" data-name="Path 27949" d="M58.3,405.357h0a1.178,1.178,0,0,1-.557-.142,1.372,1.372,0,0,0-.329-.119c-.182-.038-.215-.045-.142-2.99.005-.218.009-.379.01-.443a.828.828,0,0,1,.359-.745.905.905,0,0,1,.531-.1c.174,0,.43.008.816.019l.846.024a1.486,1.486,0,0,1,.8.178c.59.387.346,1.759.046,3.132-.038.173-.07.323-.088.424l-.014.08-.076.036a8.209,8.209,0,0,1-1.8.6A1.941,1.941,0,0,1,58.3,405.357Zm-.718-.547a1.913,1.913,0,0,1,.3.12.861.861,0,0,0,.414.11h0A1.615,1.615,0,0,0,58.63,405a7.9,7.9,0,0,0,1.655-.541c.019-.1.046-.219.075-.355.164-.749.548-2.5.09-2.8a1.189,1.189,0,0,0-.623-.124l-.847-.024c-.383-.011-.637-.019-.806-.019-.27,0-.3.019-.363.054a.564.564,0,0,0-.2.476c0,.065,0,.227-.01.449C57.585,402.766,57.544,404.423,57.585,404.81Z" transform="translate(-57.238 -400.818)" fill="#bcbec0"/>
            </g>
          </g>
        </g>
        <g id="Group_14325" data-name="Group 14325">
          <g id="Group_14317" data-name="Group 14317">
            <g id="Group_14311" data-name="Group 14311" transform="translate(0 0.445)">
              <path id="Path_27950" data-name="Path 27950" d="M22.918,387.511a.191.191,0,0,1,.108.023,2.343,2.343,0,0,1,1.176,1.352,6.416,6.416,0,0,1,.318,1.806.594.594,0,0,1-.058.38.4.4,0,0,1-.232.15c-.4.105-.783-.217-1.043-.54a3.458,3.458,0,0,1-.759-1.5,1.89,1.89,0,0,1,.385-1.6A.191.191,0,0,1,22.918,387.511Z" transform="translate(-22.233 -387.351)" fill="#fff"/>
              <path id="Path_27951" data-name="Path 27951" d="M23.856,391.183a1.433,1.433,0,0,1-1.009-.618,3.559,3.559,0,0,1-.791-1.573,2.037,2.037,0,0,1,.423-1.73.3.3,0,0,1,.394-.088,2.472,2.472,0,0,1,1.261,1.441,6.522,6.522,0,0,1,.328,1.85.735.735,0,0,1-.085.48.554.554,0,0,1-.322.214A.78.78,0,0,1,23.856,391.183Zm-1.127-3.727-.015.016a1.721,1.721,0,0,0-.347,1.462,3.249,3.249,0,0,0,.726,1.433,1.182,1.182,0,0,0,.763.5.439.439,0,0,0,.117-.015.242.242,0,0,0,.141-.086.477.477,0,0,0,.031-.279,6.263,6.263,0,0,0-.309-1.762,2.19,2.19,0,0,0-1.092-1.263Z" transform="translate(-22.015 -387.134)" fill="#bcbec0"/>
            </g>
            <g id="Group_14312" data-name="Group 14312" transform="translate(1.549 0.752)">
              <path id="Path_27952" data-name="Path 27952" d="M26.759,388.315a3.947,3.947,0,0,1,1.035,2.7q.068.728.092,1.459a1.232,1.232,0,0,1-1.25-.518,4.062,4.062,0,0,1-.223-3.583.253.253,0,0,1,.191-.138A.256.256,0,0,1,26.759,388.315Z" transform="translate(-25.906 -388.079)" fill="#fff"/>
              <path id="Path_27953" data-name="Path 27953" d="M27.423,392.449a1.466,1.466,0,0,1-1.133-.614,4.2,4.2,0,0,1-.227-3.766.407.407,0,0,1,.32-.207.4.4,0,0,1,.261.117,4.089,4.089,0,0,1,1.089,2.806c.046.486.076.98.093,1.468l0,.124-.12.034A1.083,1.083,0,0,1,27.423,392.449Zm-1.042-4.271a.432.432,0,0,0-.057.068,3.922,3.922,0,0,0,.219,3.4,1.133,1.133,0,0,0,.961.483c-.017-.438-.046-.88-.086-1.315a3.82,3.82,0,0,0-.982-2.6A.205.205,0,0,0,26.382,388.178Z" transform="translate(-25.688 -387.862)" fill="#bcbec0"/>
            </g>
            <g id="Group_14313" data-name="Group 14313" transform="translate(2.9 0.836)">
              <path id="Path_27954" data-name="Path 27954" d="M29.749,388.441a.252.252,0,0,1,.124.105,7.905,7.905,0,0,1,1.368,4.561c-1.425-.147-1.66-.62-1.9-2a5.136,5.136,0,0,1,.161-2.436C29.54,388.553,29.628,388.409,29.749,388.441Z" transform="translate(-29.106 -388.278)" fill="#fff"/>
              <path id="Path_27955" data-name="Path 27955" d="M31.2,393.067l-.191-.019c-1.546-.159-1.8-.741-2.04-2.13a5.284,5.284,0,0,1,.166-2.511c.069-.216.205-.345.363-.345a.279.279,0,0,1,.074.01.393.393,0,0,1,.211.164,8.02,8.02,0,0,1,1.4,4.641Zm-1.7-4.682a.331.331,0,0,0-.062.118,4.975,4.975,0,0,0-.156,2.36c.216,1.236.395,1.686,1.571,1.847a7.494,7.494,0,0,0-1.321-4.286A.415.415,0,0,0,29.5,388.385Z" transform="translate(-28.889 -388.061)" fill="#bcbec0"/>
            </g>
            <g id="Group_14314" data-name="Group 14314" transform="translate(4.127 0.678)">
              <path id="Path_27956" data-name="Path 27956" d="M33.056,388.15c.3-.171.684-.117,1.058.343.556.684.308,1.665.41,2.468a6.01,6.01,0,0,1,.045,2.14c-1.448.194-2.108-.759-2.328-2.115C32.094,390.079,32.136,388.667,33.056,388.15Z" transform="translate(-32.017 -387.903)" fill="#fff"/>
              <path id="Path_27957" data-name="Path 27957" d="M33.989,393.067c-.8,0-1.818-.394-2.123-2.272-.179-1.106-.039-2.475.894-3a.819.819,0,0,1,.406-.11,1.109,1.109,0,0,1,.852.491,2.675,2.675,0,0,1,.417,1.8,5.8,5.8,0,0,0,.027.744l.03.226a5.522,5.522,0,0,1,.014,1.966l-.022.111-.112.015A2.879,2.879,0,0,1,33.989,393.067ZM33.166,388a.509.509,0,0,0-.251.07c-.792.445-.892,1.718-.737,2.672.216,1.332.826,2.007,1.811,2.007.073,0,.15,0,.228-.011a5.4,5.4,0,0,0-.039-1.749l-.03-.228a6.131,6.131,0,0,1-.03-.785,2.408,2.408,0,0,0-.346-1.6A.84.84,0,0,0,33.166,388Z" transform="translate(-31.798 -387.686)" fill="#bcbec0"/>
            </g>
            <g id="Group_14315" data-name="Group 14315" transform="translate(6.7)">
              <path id="Path_27958" data-name="Path 27958" d="M38.688,387.062a1.191,1.191,0,0,1,.521-.54,1,1,0,0,1,1.072.254,2.168,2.168,0,0,1,.521,1.032,10.772,10.772,0,0,1,.217,2.726l-.011,1.839a.336.336,0,0,1-.04.192.323.323,0,0,1-.237.1,3.178,3.178,0,0,1-1.9-.374.888.888,0,0,1-.4-.37,1.032,1.032,0,0,1-.069-.394q-.032-.779-.065-1.559a10.711,10.711,0,0,1,.014-1.608A3.475,3.475,0,0,1,38.688,387.062Z" transform="translate(-38.116 -386.296)" fill="#fff"/>
              <path id="Path_27959" data-name="Path 27959" d="M40.152,392.63a3.329,3.329,0,0,1-1.612-.415,1.039,1.039,0,0,1-.469-.443,1.189,1.189,0,0,1-.083-.453l-.065-1.559a10.819,10.819,0,0,1,.014-1.632,3.59,3.59,0,0,1,.4-1.361,1.319,1.319,0,0,1,.594-.608.949.949,0,0,1,.389-.081,1.262,1.262,0,0,1,.859.367,2.349,2.349,0,0,1,.564,1.106,10.881,10.881,0,0,1,.222,2.766l-.011,1.839a.479.479,0,0,1-.068.28.473.473,0,0,1-.348.171A3.31,3.31,0,0,1,40.152,392.63Zm-.836-6.235a.628.628,0,0,0-.259.054,1.021,1.021,0,0,0-.447.472,3.281,3.281,0,0,0-.359,1.243,10.622,10.622,0,0,0-.012,1.584l.065,1.559a.905.905,0,0,0,.054.333.763.763,0,0,0,.335.3,3.02,3.02,0,0,0,1.459.375,2.863,2.863,0,0,0,.346-.02c.1-.011.12-.029.125-.036a.29.29,0,0,0,.012-.1l.011-1.839a10.64,10.64,0,0,0-.212-2.685,1.984,1.984,0,0,0-.478-.959A.942.942,0,0,0,39.316,386.4Z" transform="translate(-37.899 -386.079)" fill="#bcbec0"/>
            </g>
            <g id="Group_14316" data-name="Group 14316" transform="translate(9.555 0.08)">
              <path id="Path_27960" data-name="Path 27960" d="M49.15,387.278c.033.033.065.069.1.105a3.269,3.269,0,0,1,.639,1.509,15.185,15.185,0,0,1,.21,1.9c.054.784.357,1.953-.463,2.4a5.272,5.272,0,0,1-2.669.04c-1.3-.179-1.795.014-1.884-1.389a10.051,10.051,0,0,1,.1-2.6,3.256,3.256,0,0,1,1.462-2.412A2.3,2.3,0,0,1,49.15,387.278Z" transform="translate(-44.884 -386.485)" fill="#fff"/>
              <path id="Path_27961" data-name="Path 27961" d="M48.358,393.332a10.586,10.586,0,0,1-1.452-.135l-.182-.026c-.192-.027-.369-.045-.525-.061-.91-.094-1.411-.147-1.5-1.475a10.238,10.238,0,0,1,.1-2.64,3.26,3.26,0,0,1,1.553-2.524,2.45,2.45,0,0,1,.982-.2,2.394,2.394,0,0,1,1.7.683c.036.036.07.075.1.113a3.363,3.363,0,0,1,.673,1.581,15.371,15.371,0,0,1,.213,1.917c.009.126.024.263.04.408.086.765.192,1.718-.586,2.143A2.371,2.371,0,0,1,48.358,393.332Zm-1.016-6.747a2.126,2.126,0,0,0-.854.176,2.984,2.984,0,0,0-1.371,2.3,9.945,9.945,0,0,0-.1,2.555c.067,1.061.31,1.087,1.213,1.18.159.017.338.035.535.063l.184.026a10.308,10.308,0,0,0,1.406.131,2.11,2.11,0,0,0,.981-.179c.592-.324.5-1.124.423-1.83-.017-.149-.032-.289-.042-.422a15.167,15.167,0,0,0-.208-1.878,3.074,3.074,0,0,0-.6-1.437c-.029-.033-.058-.065-.089-.1A2.078,2.078,0,0,0,47.342,386.584Z" transform="translate(-44.667 -386.268)" fill="#bcbec0"/>
            </g>
          </g>
          <g id="Group_14324" data-name="Group 14324" transform="translate(14.708)">
            <g id="Group_14318" data-name="Group 14318" transform="translate(12.572 0.445)">
              <path id="Path_27962" data-name="Path 27962" d="M88.669,387.511a.189.189,0,0,0-.108.023,2.34,2.34,0,0,0-1.176,1.352,6.4,6.4,0,0,0-.319,1.806.594.594,0,0,0,.058.38.4.4,0,0,0,.232.15c.4.105.782-.217,1.043-.54a3.454,3.454,0,0,0,.759-1.5,1.891,1.891,0,0,0-.385-1.6A.191.191,0,0,0,88.669,387.511Z" transform="translate(-86.902 -387.351)" fill="#fff"/>
              <path id="Path_27963" data-name="Path 27963" d="M87.3,391.183h0a.776.776,0,0,1-.2-.025.557.557,0,0,1-.323-.214.734.734,0,0,1-.084-.48,6.5,6.5,0,0,1,.328-1.85,2.47,2.47,0,0,1,1.26-1.441.3.3,0,0,1,.394.088,2.039,2.039,0,0,1,.423,1.731,3.559,3.559,0,0,1-.791,1.573A1.433,1.433,0,0,1,87.3,391.183Zm1.127-3.727-.016.006a2.189,2.189,0,0,0-1.092,1.263,6.275,6.275,0,0,0-.309,1.762.474.474,0,0,0,.031.279.242.242,0,0,0,.141.086.436.436,0,0,0,.117.015,1.181,1.181,0,0,0,.763-.5,3.255,3.255,0,0,0,.726-1.433,1.723,1.723,0,0,0-.348-1.462Z" transform="translate(-86.685 -387.134)" fill="#bcbec0"/>
            </g>
            <g id="Group_14319" data-name="Group 14319" transform="translate(11.333 0.752)">
              <path id="Path_27964" data-name="Path 27964" d="M85.258,388.315a3.946,3.946,0,0,0-1.035,2.7q-.068.728-.092,1.459a1.231,1.231,0,0,0,1.25-.518,4.064,4.064,0,0,0,.224-3.583.2.2,0,0,0-.347-.059Z" transform="translate(-83.969 -388.079)" fill="#fff"/>
              <path id="Path_27965" data-name="Path 27965" d="M84.153,392.449h0a1.083,1.083,0,0,1-.286-.038l-.12-.034,0-.124c.016-.487.048-.982.093-1.468a4.087,4.087,0,0,1,1.089-2.806.4.4,0,0,1,.258-.117.409.409,0,0,1,.324.207,4.2,4.2,0,0,1-.227,3.766A1.467,1.467,0,0,1,84.153,392.449Zm-.081-.32a1.132,1.132,0,0,0,.961-.483,3.922,3.922,0,0,0,.219-3.4c-.041-.06-.062-.068-.063-.069s-.012.009-.049.04a3.821,3.821,0,0,0-.981,2.6C84.118,391.25,84.089,391.691,84.071,392.129Z" transform="translate(-83.746 -387.862)" fill="#bcbec0"/>
            </g>
            <g id="Group_14320" data-name="Group 14320" transform="translate(9.814 0.836)">
              <path id="Path_27966" data-name="Path 27966" d="M82.053,388.441a.252.252,0,0,0-.124.105,7.906,7.906,0,0,0-1.368,4.561c1.425-.147,1.66-.62,1.9-2a5.141,5.141,0,0,0-.161-2.436C82.261,388.553,82.174,388.409,82.053,388.441Z" transform="translate(-80.386 -388.278)" fill="#fff"/>
              <path id="Path_27967" data-name="Path 27967" d="M80.147,393.067l.016-.191a8.023,8.023,0,0,1,1.4-4.641.393.393,0,0,1,.211-.164.284.284,0,0,1,.074-.01c.159,0,.294.129.364.345a5.294,5.294,0,0,1,.166,2.511c-.243,1.39-.494,1.971-2.04,2.13Zm1.7-4.682c-.008.008-.018.022-.031.039A7.491,7.491,0,0,0,80.5,392.71c1.176-.161,1.355-.612,1.57-1.847a4.976,4.976,0,0,0-.156-2.361A.331.331,0,0,0,81.848,388.385Z" transform="translate(-80.147 -388.061)" fill="#bcbec0"/>
            </g>
            <g id="Group_14321" data-name="Group 14321" transform="translate(8.106 0.678)">
              <path id="Path_27968" data-name="Path 27968" d="M78.066,388.15c-.3-.171-.685-.117-1.058.343-.556.684-.308,1.665-.41,2.468a6.009,6.009,0,0,0-.045,2.14c1.448.194,2.108-.759,2.329-2.115C79.029,390.079,78.986,388.667,78.066,388.15Z" transform="translate(-76.314 -387.903)" fill="#fff"/>
              <path id="Path_27969" data-name="Path 27969" d="M76.7,393.067h0a2.879,2.879,0,0,1-.383-.027l-.111-.015-.023-.111a5.522,5.522,0,0,1,.014-1.966l.029-.226a5.8,5.8,0,0,0,.027-.745,2.677,2.677,0,0,1,.417-1.8,1.109,1.109,0,0,1,.853-.491.82.82,0,0,1,.405.109c.934.525,1.074,1.893.894,3C78.516,392.673,77.5,393.067,76.7,393.067Zm-.228-.327c.078.008.154.011.228.011.985,0,1.595-.675,1.811-2.007.155-.955.055-2.228-.737-2.672-.273-.153-.574-.045-.858.3a2.411,2.411,0,0,0-.346,1.6,6.13,6.13,0,0,1-.03.785l-.03.228A5.4,5.4,0,0,0,76.47,392.74Z" transform="translate(-76.097 -387.686)" fill="#bcbec0"/>
            </g>
            <g id="Group_14322" data-name="Group 14322" transform="translate(5.26)">
              <path id="Path_27970" data-name="Path 27970" d="M72.059,387.062a1.191,1.191,0,0,0-.521-.54,1,1,0,0,0-1.072.254,2.167,2.167,0,0,0-.521,1.032,10.733,10.733,0,0,0-.217,2.726l.01,1.839a.333.333,0,0,0,.04.192.322.322,0,0,0,.237.1,3.18,3.18,0,0,0,1.9-.374.892.892,0,0,0,.4-.37,1.031,1.031,0,0,0,.068-.394q.033-.779.065-1.559a10.711,10.711,0,0,0-.013-1.608A3.467,3.467,0,0,0,72.059,387.062Z" transform="translate(-69.568 -386.296)" fill="#fff"/>
              <path id="Path_27971" data-name="Path 27971" d="M70.162,392.63h0a3.3,3.3,0,0,1-.383-.022.4.4,0,0,1-.416-.451l-.01-1.839a10.879,10.879,0,0,1,.221-2.766,2.35,2.35,0,0,1,.564-1.106,1.264,1.264,0,0,1,.86-.367.949.949,0,0,1,.389.081,1.319,1.319,0,0,1,.595.608,3.583,3.583,0,0,1,.4,1.361,10.875,10.875,0,0,1,.014,1.632l-.066,1.559a1.148,1.148,0,0,1-.083.453,1.043,1.043,0,0,1-.468.443A3.331,3.331,0,0,1,70.162,392.63ZM71,386.4a.941.941,0,0,0-.638.276,1.98,1.98,0,0,0-.479.959,10.618,10.618,0,0,0-.212,2.685l.01,1.839a.289.289,0,0,0,.012.1c.005.007.027.025.125.036a2.851,2.851,0,0,0,.345.02,3.02,3.02,0,0,0,1.459-.375.761.761,0,0,0,.335-.3.9.9,0,0,0,.054-.333l.065-1.559a10.619,10.619,0,0,0-.012-1.584,3.281,3.281,0,0,0-.359-1.243,1.022,1.022,0,0,0-.447-.472A.63.63,0,0,0,71,386.4Z" transform="translate(-69.351 -386.079)" fill="#bcbec0"/>
            </g>
            <g id="Group_14323" data-name="Group 14323" transform="translate(0 0.08)">
              <path id="Path_27972" data-name="Path 27972" d="M58.3,387.278c-.033.033-.065.069-.1.105a3.273,3.273,0,0,0-.639,1.509,15.186,15.186,0,0,0-.21,1.9c-.054.784-.357,1.953.463,2.4a5.273,5.273,0,0,0,2.669.04c1.3-.179,1.795.014,1.884-1.389a10.05,10.05,0,0,0-.1-2.6,3.258,3.258,0,0,0-1.463-2.412A2.3,2.3,0,0,0,58.3,387.278Z" transform="translate(-57.098 -386.485)" fill="#fff"/>
              <path id="Path_27973" data-name="Path 27973" d="M58.659,393.332h0a2.37,2.37,0,0,1-1.133-.218c-.778-.426-.671-1.378-.585-2.143.016-.145.032-.282.04-.408a15.3,15.3,0,0,1,.213-1.917,3.363,3.363,0,0,1,.673-1.581c.033-.039.068-.077.1-.113a2.4,2.4,0,0,1,1.7-.683,2.45,2.45,0,0,1,.982.2A3.262,3.262,0,0,1,62.209,389a10.219,10.219,0,0,1,.1,2.64c-.084,1.328-.585,1.381-1.5,1.475-.156.016-.333.035-.525.061l-.182.026A10.579,10.579,0,0,1,58.659,393.332Zm1.016-6.747a2.078,2.078,0,0,0-1.479.588c-.03.031-.06.063-.088.1a3.069,3.069,0,0,0-.6,1.437,15.168,15.168,0,0,0-.208,1.878c-.009.133-.025.273-.041.422-.079.706-.169,1.507.423,1.83a2.11,2.11,0,0,0,.981.179h0a10.314,10.314,0,0,0,1.406-.131l.184-.026c.2-.027.376-.046.534-.063.9-.094,1.146-.119,1.213-1.18a9.946,9.946,0,0,0-.1-2.555,2.982,2.982,0,0,0-1.371-2.3A2.122,2.122,0,0,0,59.675,386.584Z" transform="translate(-56.881 -386.268)" fill="#bcbec0"/>
            </g>
          </g>
        </g>
      </g>
      <path id="Path_27974" data-name="Path 27974" d="M43.364,380.864a18.759,18.759,0,0,0-12.252-1.018,18.76,18.76,0,0,0-12.252,1.018c-5.179,2.288-6.309,3.1-6.555,3.347a11.22,11.22,0,0,0,2.484.247c-.043-.071-.086-.142-.127-.215a96.9,96.9,0,0,1,32.9,0c-.035.061-.07.12-.106.18a13.489,13.489,0,0,0,2.5-.022c.024-.058.036-.089.036-.089S50.092,383.837,43.364,380.864Z" transform="translate(-12.237 -379.259)" fill="#e53553"/>
      <path id="Path_27975" data-name="Path 27975" d="M47.361,391.21c-3.965,6.675-13.67,7.393-16.343,7.462-2.669-.069-12.344-.784-16.323-7.427A11.222,11.222,0,0,1,12.211,391c-.074.075-.068.1-.068.1s2.908,7.367,6.623,9.745c3.857,2.469,5.207,3.506,12.252,3.285,7.045.221,8.395-.816,12.252-3.285,3.475-2.224,6.244-8.814,6.587-9.655A13.486,13.486,0,0,1,47.361,391.21Z" transform="translate(-12.143 -386.046)" fill="#f94e63"/>
      <path id="Path_27976" data-name="Path 27976" d="M35.68,404.586c.07,0,.141.01.211.018a.732.732,0,0,1,.629.313c.51,1.078-3.122,1.21-3.633,1.16a15.913,15.913,0,0,1-6.342-1.719,12.873,12.873,0,0,1-2.871-2.128c-.946-.933-1.538-2.076-2.409-3.057,3.122,3.512,8.069,5.268,12.687,5.394C34.527,404.582,35.1,404.548,35.68,404.586Z" transform="translate(-17.416 -390.772)" fill="#ff788f"/>
      <path id="Path_27977" data-name="Path 27977" d="M34.933,381.907a17.712,17.712,0,0,0-4.057.439c-.945.223-2.825.33-3.582.963,2.215-1.855,4.72-2.216,7.528-2.275a7.725,7.725,0,0,1,1.05.025,3.92,3.92,0,0,1,2.152.965C36.992,381.956,35.961,381.9,34.933,381.907Z" transform="translate(-20.903 -380.282)" fill="#ff788f"/>
    </g>
    <path id="Path_27978" data-name="Path 27978" d="M26.648,391.92s15.4-3.146,26.135.053C52.378,394.974,35.139,402.544,26.648,391.92Z" transform="translate(-20.529 -385.78)" fill="#cccdce" style="mix-blend-mode: overlay;isolation: isolate"/>
  </g>
</svg>
