<svg xmlns="http://www.w3.org/2000/svg" width="39.86" height="20.694" viewBox="0 0 39.86 20.694">
  <g id="Eye" transform="translate(0 0)">
    <g id="_14" data-name="14" transform="translate(0)">
      <path id="Path_28915" data-name="Path 28915" d="M48.408,361.99c-.467.364-.886.773-1.351,1.169-.516.439-1.146.987-.982,1.774a.831.831,0,0,0,.225.371,7.9,7.9,0,0,0,1.863,1.373,12.936,12.936,0,0,0,1.649.993,5.782,5.782,0,0,1-1.314-4.79,2.544,2.544,0,0,1,.708-1.425A6.1,6.1,0,0,0,48.408,361.99Z" transform="translate(-45.668 -351.233)" fill="#fc9faf"/>
      <path id="Path_28916" data-name="Path 28916" d="M74.532,350.926a27.032,27.032,0,0,0-16.914,1.3,28.387,28.387,0,0,0-7.067,4.409,5.424,5.424,0,0,0,.76,4.423c10.9,5.6,23.052,7.121,34.757-5.162A35.682,35.682,0,0,0,74.532,350.926Z" transform="translate(-47.853 -345.505)" fill="#dce8ef"/>
      <path id="Path_28917" data-name="Path 28917" d="M64.084,355.2a9.224,9.224,0,1,0,17.4-4.272,27.032,27.032,0,0,0-16.914,1.3A9.357,9.357,0,0,0,64.084,355.2Z" transform="translate(-54.804 -345.505)" fill="#89695e"/>
      <path id="Path_28918" data-name="Path 28918" d="M66.933,356.632a7.819,7.819,0,1,0,14.748-3.621,22.911,22.911,0,0,0-14.337,1.1A7.916,7.916,0,0,0,66.933,356.632Z" transform="translate(-56.247 -346.621)" fill="#997258"/>
      <path id="Path_28919" data-name="Path 28919" d="M71.955,354.888a5.34,5.34,0,1,0,5.34-5.34A5.34,5.34,0,0,0,71.955,354.888Z" transform="translate(-58.791 -345.201)" fill="#2c3e50"/>
      <path id="Path_28920" data-name="Path 28920" d="M83.581,353.247l-.148-.073a47,47,0,0,0-8.087-2.937,39.2,39.2,0,0,0-15.307-1.346,24.715,24.715,0,0,0-8.121,2.481,22.1,22.1,0,0,0-3.785,2.477c-1,.811-2.589,2.289-1.486,3.721a3.3,3.3,0,0,0-1-.864.36.36,0,0,1-.18-.161.307.307,0,0,1,0-.175c.317-1.533,1.761-3.153,2.794-4.265a20.941,20.941,0,0,1,4.28-3.5,25.441,25.441,0,0,1,14.439-3.669c7.068.284,12.058,2.644,17.816,6.615C82.85,353.5,83.581,353.247,83.581,353.247Z" transform="translate(-45.366 -342.855)" fill="#f2c0aa"/>
      <path id="Path_28921" data-name="Path 28921" d="M85.007,361.944a2.427,2.427,0,1,0,2.427-2.427A2.427,2.427,0,0,0,85.007,361.944Z" transform="translate(-65.402 -350.251)" fill="#fff"/>
      <g id="Group_14764" data-name="Group 14764" transform="translate(14)">
        <path id="Path_28922" data-name="Path 28922" d="M121.126,350.367c-.551,2.368-2.039,3.973-4.466,4.137l.139.03a.267.267,0,0,1,.177.118c.867.232,1.4.39,1.4.39C119.83,354.212,121.906,351.721,121.126,350.367Z" transform="translate(-95.435 -345.616)" fill="#bc8866"/>
        <path id="Path_28923" data-name="Path 28923" d="M87.228,346.649c2.036-1.569,3.419-4.483,2.959-5.91a8.18,8.18,0,0,1-4.643,5.808C86.106,346.57,86.667,346.6,87.228,346.649Z" transform="translate(-79.674 -340.739)" fill="#bc8866"/>
        <path id="Path_28924" data-name="Path 28924" d="M97.081,349.423c1.3-1.036,3.024-2.376,2.628-4.122-.581,1.452-1.079,3.015-4.258,3.973C95.981,349.322,96.529,349.366,97.081,349.423Z" transform="translate(-84.692 -343.05)" fill="#bc8866"/>
        <path id="Path_28925" data-name="Path 28925" d="M101.5,348.605c2-1.155,2.893-3.99,2.863-5.688a7.88,7.88,0,0,1-4.857,5.339A15.437,15.437,0,0,1,101.5,348.605Z" transform="translate(-86.746 -341.842)" fill="#bc8866"/>
        <path id="Path_28926" data-name="Path 28926" d="M112.411,346.334a5.628,5.628,0,0,1-6.2,3.845c1.282-.594,3.8-4.283,3.135-5.985-.886,3.149-2.757,4.7-5.09,5.154a6.7,6.7,0,0,1,1.869.845.32.32,0,0,1,.1.107c.921.236,1.836.5,2.759.745C110.5,350.115,112.693,347.932,112.411,346.334Z" transform="translate(-89.154 -342.489)" fill="#bc8866"/>
        <path id="Path_28927" data-name="Path 28927" d="M92.476,347.111c2.047-1.33,3.73-4.307,3.084-5.953-.947,3.253-2.092,4.751-4.683,5.79Q91.677,347.025,92.476,347.111Z" transform="translate(-82.376 -340.951)" fill="#bc8866"/>
        <path id="Path_28928" data-name="Path 28928" d="M80.019,348.178a4.3,4.3,0,0,0,1.4-4.251c-.144,3.876-3.013,4.412-3.013,4.412v.043C78.94,348.3,79.477,348.226,80.019,348.178Z" transform="translate(-76.059 -342.354)" fill="#bc8866"/>
        <path id="Path_28929" data-name="Path 28929" d="M73.8,349.342c.165-.009.331-.021.495-.037a8,8,0,0,0,.294-4,5.523,5.523,0,0,1-.937,3.825Z" transform="translate(-73.649 -343.05)" fill="#bc8866"/>
      </g>
      <path id="Path_28930" data-name="Path 28930" d="M52.286,365.822s14.221,8.723,26.966.415c3.092-2.5,4.574-3.3,6.012-6.688l1.128.767s-5.852,8.506-14.655,9.7C64.491,370.591,58.763,370.392,52.286,365.822Z" transform="translate(-48.828 -350.267)" fill="#ffc2c5"/>
      <path id="Path_28931" data-name="Path 28931" d="M45.3,364.69c-.381-.3,5.546,3.72,10.466,5.282s16.857,3.275,27.081-8.869l1.265.391S74.7,373.48,61.15,371.534C51.186,369.9,47.891,366.719,45.3,364.69Z" transform="translate(-45.279 -351.054)" fill="#eaaf8f"/>
      <path id="Path_28932" data-name="Path 28932" d="M96.923,356.661c-.272-.039-.149-.009-.614-.047l-.449.1c-15.734-5.319-15.925-5.06-25.282-4.02.233-.078.466-.136.7-.194,10.389-2.777,20.534,1.356,23.253,3.007Z" transform="translate(-58.094 -346.221)" fill="#bc8866"/>
      <g id="Group_14765" data-name="Group 14765" transform="translate(24.698 11.754)">
        <path id="Path_28933" data-name="Path 28933" d="M117.826,368.6a1.019,1.019,0,0,0-.44-.359,1.56,1.56,0,0,0-.933-.055,1.886,1.886,0,0,0-.363.116s.138.062.349.135.5.161.749.265a1.526,1.526,0,0,1,.327.184c.1.074.2.163.282.236a2.308,2.308,0,0,0,.3.228,3.311,3.311,0,0,0-.092-.366A1.439,1.439,0,0,0,117.826,368.6Z" transform="translate(-105.845 -366.372)" fill="#bc8866"/>
        <path id="Path_28934" data-name="Path 28934" d="M113.71,372.014a.955.955,0,0,0-.4-.422,1.362,1.362,0,0,0-.955-.089,1.7,1.7,0,0,0-.364.125s.142.055.355.125a4.714,4.714,0,0,1,.724.279,1.186,1.186,0,0,1,.292.218,3.609,3.609,0,0,1,.237.278,2.945,2.945,0,0,0,.251.284,2.543,2.543,0,0,0-.02-.381A1.321,1.321,0,0,0,113.71,372.014Z" transform="translate(-103.767 -368.052)" fill="#bc8866"/>
        <path id="Path_28935" data-name="Path 28935" d="M107.481,375.156a1.013,1.013,0,0,0-.521-.242,1.5,1.5,0,0,0-.426-.011,1.642,1.642,0,0,0-.377.08s.135.072.337.167a2.808,2.808,0,0,1,.648.376,1.379,1.379,0,0,1,.329.618,3.6,3.6,0,0,0,.14.353,2.274,2.274,0,0,0,.111-.368,1.316,1.316,0,0,0,.029-.432A.854.854,0,0,0,107.481,375.156Z" transform="translate(-100.814 -369.793)" fill="#bc8866"/>
        <path id="Path_28936" data-name="Path 28936" d="M121.992,364.945a1.849,1.849,0,0,0-1.956-.192,1.471,1.471,0,0,0-.353.235l.409.01c.244.008.56.036.9.069s.657.069.9.108l.4.069A1.485,1.485,0,0,0,121.992,364.945Z" transform="translate(-107.665 -364.559)" fill="#bc8866"/>
        <path id="Path_28937" data-name="Path 28937" d="M101.9,377.866a1.327,1.327,0,0,0-.972-.155,1.025,1.025,0,0,0-.276.108c-.061.035-.091.056-.091.056l.1.021a2.157,2.157,0,0,1,.26.066,3.468,3.468,0,0,1,.718.335,3.419,3.419,0,0,1,.634.475,1.921,1.921,0,0,1,.181.2l.067.082s0-.037.007-.107a1.023,1.023,0,0,0-.036-.3A1.323,1.323,0,0,0,101.9,377.866Z" transform="translate(-97.98 -371.204)" fill="#bc8866"/>
        <path id="Path_28938" data-name="Path 28938" d="M95.571,380.128a.6.6,0,0,0-.242.04l.134.186a2.056,2.056,0,0,0,.588.627l.177.145a.586.586,0,0,0,.056-.238.72.72,0,0,0-.713-.759Z" transform="translate(-95.329 -372.445)" fill="#bc8866"/>
      </g>
      <path id="Path_28939" data-name="Path 28939" d="M58.687,364.71a6.5,6.5,0,0,1-1.02-3.017c-.04-1.254.236-1.794-1.245-1.632a2.44,2.44,0,0,0-2.43,2.419,4.854,4.854,0,0,0,1.888,3.592C57.5,367.4,60.065,367.387,58.687,364.71Z" transform="translate(-49.692 -350.512)" fill="#edf7fc"/>
      <path id="Path_28940" data-name="Path 28940" d="M103.955,359.586a2.269,2.269,0,0,1,2.216,1.181,2.457,2.457,0,0,1-.51,2.553c-.768.889-3.788,3.638-5.051,2.476-.832-.765,1.213-3.278,1.427-4.269C102.266,360.465,102.641,359.682,103.955,359.586Z" transform="translate(-73.205 -350.283)" fill="#edf7fc"/>
      <path id="Path_28941" data-name="Path 28941" d="M66.923,364a26.784,26.784,0,0,0,4.209-2.395,6.965,6.965,0,0,1,.154-4.122c-1.336-.046-4.049-.2-5.17.668-.909.707-.7,2.46-.437,3.432A7.191,7.191,0,0,0,66.923,364Z" transform="translate(-55.497 -349.201)" fill="#8aa2aa" style="mix-blend-mode: overlay;isolation: isolate"/>
      <path id="Path_28942" data-name="Path 28942" d="M75.144,369.755q-1.718,1.1-3.414,2.225a8.931,8.931,0,0,0,3.308,1.926c1.571.471,3.773.348,4.919-1.011A7.5,7.5,0,0,1,75.144,369.755Z" transform="translate(-58.677 -355.436)" fill="#8aa2aa" style="mix-blend-mode: overlay;isolation: isolate"/>
    </g>
  </g>
</svg>
