<svg xmlns="http://www.w3.org/2000/svg" width="37.184" height="31.66" viewBox="0 0 37.184 31.66">
  <g id="General" transform="translate(0)">
    <g id="Group_14178" data-name="Group 14178" transform="translate(0 1.94)">
      <g id="Group_14167" data-name="Group 14167" transform="translate(0 0)">
        <g id="Group_14161" data-name="Group 14161" transform="translate(8.814 14.767)">
          <rect id="Rectangle_4004" data-name="Rectangle 4004" width="4.218" height="3.172" transform="translate(0)" fill="#e8a78c"/>
          <path id="Path_27635" data-name="Path 27635" d="M147.895,220.939a3.182,3.182,0,0,0,1.86-.746,4.093,4.093,0,0,0,1.021-1.254c.05-.1.106-.2.157-.319v-.113h-4.218v2.373A6.726,6.726,0,0,0,147.895,220.939Z" transform="translate(-146.715 -218.507)" fill="#c7c9cb" style="mix-blend-mode: multiply;isolation: isolate"/>
        </g>
        <path id="Path_27636" data-name="Path 27636" d="M130.048,128.228A5.261,5.261,0,0,0,124.9,134.4a28.321,28.321,0,0,0,1.154,5.337c.479,1.846,3.028,2.82,4,2.883.971-.063,3.52-1.037,4-2.883A28.322,28.322,0,0,0,135.2,134.4,5.261,5.261,0,0,0,130.048,128.228Z" transform="translate(-119.282 -126.859)" fill="#e8a78c"/>
        <g id="Group_14162" data-name="Group 14162" transform="translate(4.846 8.355)">
          <path id="Path_27637" data-name="Path 27637" d="M190.591,175.521l-.3,2.3c1.181.521,1.366-2.189,1.366-2.189C191.383,174.958,190.591,175.521,190.591,175.521Z" transform="translate(-179.855 -175.301)" fill="#e8a78c"/>
          <path id="Path_27638" data-name="Path 27638" d="M119.976,175.634s.185,2.71,1.366,2.189l-.3-2.3S120.249,174.958,119.976,175.634Z" transform="translate(-119.976 -175.301)" fill="#e8a78c"/>
        </g>
        <path id="Path_27639" data-name="Path 27639" d="M188.339,157.512" transform="translate(-173.348 -151.797)" fill="#2d1a10"/>
        <path id="Path_27640" data-name="Path 27640" d="M100.355,233.679l5.6,1.569a3.119,3.119,0,0,1,2.4,2.163l.835,3.35H87.323l.835-3.35a3.119,3.119,0,0,1,2.4-2.163l5.581-1.569Z" transform="translate(-87.323 -216.66)" fill="#e8a78c"/>
        <path id="Path_27641" data-name="Path 27641" d="M100.355,233.679l5.6,1.569a3.119,3.119,0,0,1,2.4,2.163l.835,3.35H87.323l.835-3.35a3.119,3.119,0,0,1,2.4-2.163l5.581-1.569,2.117,4.385Z" transform="translate(-87.323 -216.66)" fill="#0bafb3"/>
        <path id="Path_27642" data-name="Path 27642" d="M95.308,241.826H87.323l.835-3.35a3.119,3.119,0,0,1,2.4-2.163l4.929-1.383Z" transform="translate(-87.323 -217.725)" fill="#fff"/>
        <path id="Path_27643" data-name="Path 27643" d="M181,235.509l4.628,1.3a3.119,3.119,0,0,1,2.4,2.163l.835,3.35h-7.977Z" transform="translate(-167 -218.219)" fill="#fff"/>
        <g id="Group_14163" data-name="Group 14163" transform="translate(6.602 17.019)">
          <path id="Path_27644" data-name="Path 27644" d="M131.807,247.721a3.727,3.727,0,0,1,3.59-.431s-1.048-2.6-3.59.431" transform="translate(-131.807 -244.385)" fill="#96999c" style="mix-blend-mode: multiply;isolation: isolate"/>
          <path id="Path_27645" data-name="Path 27645" d="M135.55,236.848s-.857-2.16-3.743.167l1.031-3,1.2-.332Z" transform="translate(-131.807 -233.679)" fill="#0b989b"/>
        </g>
        <g id="Group_14164" data-name="Group 14164" transform="translate(11.599 17.019)">
          <path id="Path_27646" data-name="Path 27646" d="M169.146,247.87s-2.231-1.551-3.664-.345c0,0,1.122-2.689,3.664.345" transform="translate(-165.482 -244.534)" fill="#96999c" style="mix-blend-mode: multiply;isolation: isolate"/>
          <path id="Path_27647" data-name="Path 27647" d="M165.482,236.67s.778-1.981,3.664.345l-1.028-3-1.2-.337Z" transform="translate(-165.482 -233.679)" fill="#0b989b"/>
        </g>
        <path id="Path_27648" data-name="Path 27648" d="M138.907,139.426s-.608,2.286,3.617,3.49c0,0,3.256.641,4.594-.206C147.118,142.71,145.871,137.51,138.907,139.426Z" transform="translate(-131.225 -136.034)" fill="#aeb0b3" style="mix-blend-mode: multiply;isolation: isolate"/>
        <path id="Path_27649" data-name="Path 27649" d="M135.41,122.821a16.681,16.681,0,0,1-.6,4.669c-.068.23-.327.9-.327.9l-.217.007v-1.5c-.133-2.132-.272-2.148-.272-2.148a7.79,7.79,0,0,1-6.83-.981,3.09,3.09,0,0,1-.582-.7,3.715,3.715,0,0,0-.978,1.212,5.526,5.526,0,0,0-.579,2.9v1.5l-.227-.09-.316-1.182a24.607,24.607,0,0,1-.169-5.244,4.111,4.111,0,0,1,3.5-3.106s5.452-.506,6.912,1.3A4.006,4.006,0,0,1,135.41,122.821Z" transform="translate(-118.763 -119.003)" fill="#330903"/>
        <g id="Group_14165" data-name="Group 14165" transform="translate(7.31 1.961)">
          <path id="Path_27650" data-name="Path 27650" d="M136.721,132.218a2.943,2.943,0,0,0-.031.433,3.652,3.652,0,0,0,.157,1.11,3.025,3.025,0,0,0,.31.664,2.649,2.649,0,0,0,.532.608,3.3,3.3,0,0,0,.343.257l.191.109a1.577,1.577,0,0,0,.2.1l.2.1.213.079c.14.058.291.091.437.135s.3.069.449.1.3.048.454.073c.3.033.6.072.9.079s.577.016.846.02l.762-.017.645-.036c.193-.009.36-.027.5-.035.277-.02.436-.028.436-.028s-.154.038-.426.1c-.136.028-.3.072-.492.1s-.407.07-.644.106-.5.062-.77.08-.565.039-.866.029c-.151,0-.3,0-.459-.012s-.313-.014-.471-.038-.318-.039-.477-.07-.32-.059-.477-.105a4.851,4.851,0,0,1-.467-.151l-.229-.088-.221-.107a3.529,3.529,0,0,1-.419-.245,3.584,3.584,0,0,1-.369-.3,2.647,2.647,0,0,1-.552-.709,2.847,2.847,0,0,1-.277-.748,3.148,3.148,0,0,1-.067-.662,3.113,3.113,0,0,1,.041-.507,2.676,2.676,0,0,1,.069-.318C136.707,132.255,136.721,132.218,136.721,132.218Z" transform="translate(-136.578 -132.218)" fill="#200"/>
        </g>
        <path id="Path_27651" data-name="Path 27651" d="M140.989,133.936a4.477,4.477,0,0,0,3.334,2.845,3.588,3.588,0,0,1-1.667-1.745,2.563,2.563,0,0,0,1.667.766s-1.73-1.343-1.775-2.116a1.149,1.149,0,0,0-.169,1.547S141.865,135.142,140.989,133.936Z" transform="translate(-133.025 -131.507)" fill="#fff" opacity="0.5" style="mix-blend-mode: soft-light;isolation: isolate"/>
        <path id="Path_27652" data-name="Path 27652" d="M171.048,125.465s3.367-.061,3.539,3.254a1.646,1.646,0,0,0-.973-1.08,4.879,4.879,0,0,1,.9,3.543s.43-1.581-2.461-3.923a2.8,2.8,0,0,1,1.849.122A3.708,3.708,0,0,0,171.048,125.465Z" transform="translate(-158.623 -124.506)" fill="#fff" opacity="0.5" style="mix-blend-mode: soft-light;isolation: isolate"/>
        <g id="Group_14166" data-name="Group 14166" transform="translate(5.614 7.13)">
          <path id="Path_27653" data-name="Path 27653" d="M133.123,167.047c-1.01-.008-2.026-.052-1.955,1.493a1.827,1.827,0,0,0,1.691,1.786,2.1,2.1,0,0,0,2.131-1.486C135.178,168.037,135.622,167.067,133.123,167.047Zm1.611,1.772a1.81,1.81,0,0,1-1.839,1.283,1.577,1.577,0,0,1-1.46-1.542c-.061-1.333.816-1.3,1.688-1.289C135.279,167.288,134.9,168.126,134.734,168.819Z" transform="translate(-130.272 -167.045)" fill="#1a1818"/>
          <path id="Path_27654" data-name="Path 27654" d="M163.484,169.238a2.1,2.1,0,0,0,2.159,1.444,1.826,1.826,0,0,0,1.657-1.818c.041-1.546-.974-1.483-1.983-1.455C162.818,167.477,163.281,168.439,163.484,169.238Zm1.838-1.605c.872-.024,1.748-.079,1.712,1.256a1.577,1.577,0,0,1-1.43,1.57,1.81,1.81,0,0,1-1.864-1.247C163.565,168.522,163.165,167.692,165.322,167.633Z" transform="translate(-157.65 -167.347)" fill="#1a1818"/>
          <path id="Path_27655" data-name="Path 27655" d="M157.028,170.178a.964.964,0,0,1,1.045.013.61.61,0,0,1,.1-.579,1.725,1.725,0,0,0-1.258-.015A1.413,1.413,0,0,1,157.028,170.178Z" transform="translate(-152.204 -169.125)" fill="#1a1818"/>
          <path id="Path_27656" data-name="Path 27656" d="M126.58,168.308l-1.427.221.1.876.939.5A2.159,2.159,0,0,1,126.58,168.308Z" transform="translate(-125.153 -168.121)" fill="#1a1818"/>
          <path id="Path_27657" data-name="Path 27657" d="M187.374,169.122l1.37.406-.214.77-.809.427A2.158,2.158,0,0,0,187.374,169.122Z" transform="translate(-178.14 -168.814)" fill="#1a1818"/>
          <path id="Path_27658" data-name="Path 27658" d="M166.926,168.926c.872-.024,1.748-.079,1.712,1.256a1.577,1.577,0,0,1-1.43,1.57,1.81,1.81,0,0,1-1.864-1.247C165.169,169.815,164.77,168.985,166.926,168.926Z" transform="translate(-159.254 -168.64)" fill="#fff" opacity="0.2"/>
          <path id="Path_27659" data-name="Path 27659" d="M136.263,170.049a1.81,1.81,0,0,1-1.84,1.283,1.577,1.577,0,0,1-1.46-1.542c-.061-1.334.815-1.3,1.688-1.289C136.809,168.519,136.425,169.356,136.263,170.049Z" transform="translate(-131.802 -168.283)" fill="#fff" opacity="0.2"/>
        </g>
      </g>
      <g id="Group_14177" data-name="Group 14177" transform="translate(4.271 15.871)">
        <g id="Group_14168" data-name="Group 14168" transform="translate(0.868)">
          <path id="Path_27660" data-name="Path 27660" d="M125.629,226.017h-.353a2.4,2.4,0,0,0-1.63.717c-1.011.958-1.849,3.651-1.674,6.512h.6c-.2-3.1.867-5.476,1.469-6.057a1.8,1.8,0,0,1,1.211-.569h.374Z" transform="translate(-121.949 -226.007)" fill="#0e1725"/>
          <path id="Path_27661" data-name="Path 27661" d="M177.237,226.522a2.474,2.474,0,0,0-2.036-.563h-.174v.6h.2a1.994,1.994,0,0,1,1.558.363.724.724,0,0,1,.2.544l.6.08A1.337,1.337,0,0,0,177.237,226.522Z" transform="translate(-167.15 -225.949)" fill="#0e1725"/>
        </g>
        <g id="Group_14170" data-name="Group 14170" transform="translate(11.795 4.638)">
          <g id="Group_14169" data-name="Group 14169">
            <path id="Path_27662" data-name="Path 27662" d="M196.987,257.2a.138.138,0,0,1,.138.132,13.169,13.169,0,0,1-.1,2.049,1.965,1.965,0,0,1-.2.663,1.188,1.188,0,0,1-1.106.689.138.138,0,0,1,0-.276c.924,0,1.026-1.058,1.03-1.1v-.005a13.177,13.177,0,0,0,.1-2,.138.138,0,0,1,.132-.145Z" transform="translate(-195.579 -257.2)" fill="#aeb0b3"/>
          </g>
          <path id="Path_27663" data-name="Path 27663" d="M195.717,260.734a1.188,1.188,0,0,0,1.106-.689,1.965,1.965,0,0,0,.2-.663,13.169,13.169,0,0,0,.1-2.049.138.138,0,0,0-.138-.132h-.007a.138.138,0,0,0-.132.145s0,.036,0,.1h.015a.122.122,0,0,1,.122.116,11.661,11.661,0,0,1-.091,1.809,1.738,1.738,0,0,1-.176.585,1.048,1.048,0,0,1-.976.608.122.122,0,0,1-.112-.075.138.138,0,0,0,.084.248Z" transform="translate(-195.579 -257.2)" fill="#aeb0b3" style="mix-blend-mode: multiply;isolation: isolate"/>
        </g>
        <g id="Group_14172" data-name="Group 14172" transform="translate(8.769 4.638)">
          <g id="Group_14171" data-name="Group 14171">
            <path id="Path_27664" data-name="Path 27664" d="M175.329,257.2a.138.138,0,0,0-.138.132,13.223,13.223,0,0,0,.1,2.049,1.968,1.968,0,0,0,.2.663,1.188,1.188,0,0,0,1.106.689.138.138,0,1,0,0-.276c-.923,0-1.026-1.058-1.03-1.1,0,0,0,0,0-.005a13.188,13.188,0,0,1-.1-2,.138.138,0,0,0-.132-.145Z" transform="translate(-175.185 -257.2)" fill="#aeb0b3"/>
          </g>
          <path id="Path_27665" data-name="Path 27665" d="M176.6,260.734a1.188,1.188,0,0,1-1.106-.689,1.968,1.968,0,0,1-.2-.663,13.223,13.223,0,0,1-.1-2.049.138.138,0,0,1,.138-.132h.007a.138.138,0,0,1,.132.145s0,.036,0,.1h-.015a.122.122,0,0,0-.122.116,11.686,11.686,0,0,0,.091,1.809,1.744,1.744,0,0,0,.176.585,1.049,1.049,0,0,0,.976.608.122.122,0,0,0,.113-.075.138.138,0,0,1-.084.248Z" transform="translate(-175.185 -257.2)" fill="#aeb0b3" style="mix-blend-mode: multiply;isolation: isolate"/>
        </g>
        <g id="Group_14173" data-name="Group 14173" transform="translate(8.637 1.385)">
          <path id="Path_27666" data-name="Path 27666" d="M176.62,235.28h.039a2.069,2.069,0,0,1,1.425.522c1.117,1,1.056,3.11,1.053,3.2a.264.264,0,0,1-.285.235.259.259,0,0,1-.268-.25c0-.027.055-1.994-.9-2.845a1.48,1.48,0,0,0-1.047-.376h-.019a1.36,1.36,0,0,0-.852.345c-.42.354-.921,1.141-.921,2.884a.279.279,0,0,1-.553,0,4.037,4.037,0,0,1,1.111-3.251A1.978,1.978,0,0,1,176.62,235.28Z" transform="translate(-174.296 -235.28)" fill="#0e1725"/>
        </g>
        <path id="Path_27667" data-name="Path 27667" d="M174.573,239.237a.263.263,0,0,0,.276-.231.228.228,0,0,1-.241-.211,3.517,3.517,0,0,1,.968-2.832,1.724,1.724,0,0,1,1.057-.4h.034a1.8,1.8,0,0,1,1.242.455,4.067,4.067,0,0,1,.918,2.787.229.229,0,0,1-.241.2.261.261,0,0,0,.267.231.264.264,0,0,0,.285-.235c0-.089.064-2.2-1.053-3.2a2.069,2.069,0,0,0-1.425-.522h-.039a1.978,1.978,0,0,0-1.213.463,4.037,4.037,0,0,0-1.111,3.251A.261.261,0,0,0,174.573,239.237Z" transform="translate(-165.659 -233.895)" fill="#96999c" style="mix-blend-mode: multiply;isolation: isolate"/>
        <g id="Group_14174" data-name="Group 14174" transform="translate(11.389 7.78)">
          <path id="Path_27668" data-name="Path 27668" d="M192.842,278.61a.238.238,0,0,1,.238-.238l.446.039c.138.034.134.107.138.2h0c0,.1,0,.173-.15.207l-.434.031a.238.238,0,0,1-.238-.238Z" transform="translate(-192.842 -278.372)" fill="#0e1725"/>
          <path id="Path_27669" data-name="Path 27669" d="M193.762,279.977a.25.25,0,0,0-.23.111.237.237,0,0,0,.167.068l.264-.019C193.972,280.01,193.895,279.976,193.762,279.977Z" transform="translate(-193.43 -279.739)" fill="#fff" style="mix-blend-mode: soft-light;isolation: isolate"/>
          <path id="Path_27670" data-name="Path 27670" d="M193.3,278.482a.3.3,0,0,1,.271.328c.122-.037.123-.107.123-.2s0-.165-.138-.2l-.446-.039a.238.238,0,0,0-.234.193A.549.549,0,0,1,193.3,278.482Z" transform="translate(-192.868 -278.372)" fill="#6d6f72" style="mix-blend-mode: multiply;isolation: isolate"/>
        </g>
        <g id="Group_14175" data-name="Group 14175" transform="translate(10.037 7.78)">
          <path id="Path_27671" data-name="Path 27671" d="M184.556,278.61a.238.238,0,0,0-.238-.238l-.445.039c-.138.034-.134.107-.138.2h0c0,.1,0,.173.15.207l.434.031a.238.238,0,0,0,.238-.238Z" transform="translate(-183.734 -278.372)" fill="#0e1725"/>
          <path id="Path_27672" data-name="Path 27672" d="M185.879,279.977a.249.249,0,0,1,.23.111.237.237,0,0,1-.166.068l-.264-.019C185.668,280.01,185.745,279.976,185.879,279.977Z" transform="translate(-185.389 -279.739)" fill="#fff" style="mix-blend-mode: soft-light;isolation: isolate"/>
          <path id="Path_27673" data-name="Path 27673" d="M184.127,278.482a.3.3,0,0,0-.271.328c-.122-.037-.123-.107-.123-.2s0-.165.138-.2l.445-.039a.238.238,0,0,1,.234.193A.549.549,0,0,0,184.127,278.482Z" transform="translate(-183.734 -278.372)" fill="#6d6f72" style="mix-blend-mode: multiply;isolation: isolate"/>
        </g>
        <g id="Group_14176" data-name="Group 14176" transform="translate(0 5.659)">
          <path id="Path_27674" data-name="Path 27674" d="M116.1,265.377a1.3,1.3,0,1,1,1.3,1.3A1.3,1.3,0,0,1,116.1,265.377Z" transform="translate(-116.099 -264.078)" fill="#0e1725"/>
          <path id="Path_27675" data-name="Path 27675" d="M118.5,267.423a.942.942,0,1,1,.942.942A.942.942,0,0,1,118.5,267.423Z" transform="translate(-118.145 -266.124)" fill="#96999c"/>
          <path id="Path_27676" data-name="Path 27676" d="M119.514,268.284a.792.792,0,1,1,.792.792A.792.792,0,0,1,119.514,268.284Z" transform="translate(-119.007 -266.985)" fill="#818386"/>
        </g>
      </g>
    </g>
    <g id="Group_14195" data-name="Group 14195" transform="translate(10.488 0)">
      <g id="Group_14184" data-name="Group 14184" transform="translate(0 0)">
        <path id="Path_27677" data-name="Path 27677" d="M191.887,135.988a18.494,18.494,0,0,0-.856,15.442,3,3,0,0,1-.608,2.6l5.172-.357V139.358Z" transform="translate(-185.001 -131.528)" fill="#2d1a10"/>
        <path id="Path_27678" data-name="Path 27678" d="M271.778,133.425a21.483,21.483,0,0,1,.042,15.823,3,3,0,0,0,.608,2.6l-5.172-.357V137.176Z" transform="translate(-251.041 -129.345)" fill="#2d1a10"/>
        <g id="Group_14179" data-name="Group 14179" transform="translate(10.634 19.363)">
          <rect id="Rectangle_4005" data-name="Rectangle 4005" width="5.541" height="4.166" transform="translate(0 0)" fill="#e8a78c"/>
          <path id="Path_27679" data-name="Path 27679" d="M231.2,239.6a4.179,4.179,0,0,0,2.444-.98,5.385,5.385,0,0,0,1.341-1.647c.066-.125.139-.268.206-.42v-.148h-5.541v3.117A8.848,8.848,0,0,0,231.2,239.6Z" transform="translate(-229.648 -236.408)" fill="#c7c9cb" style="mix-blend-mode: multiply;isolation: isolate"/>
        </g>
        <path id="Path_27680" data-name="Path 27680" d="M215.157,131.153c0-5.133-3.075-8.083-6.879-8.107h-.08c-3.8.024-6.878,2.974-6.878,8.107,0,6.657,4.792,10.539,6.911,10.556h.015C210.365,141.693,215.157,137.81,215.157,131.153Z" transform="translate(-194.891 -120.506)" fill="#e8a78c"/>
        <g id="Group_14180" data-name="Group 14180" transform="translate(5.887 12.259)">
          <path id="Path_27681" data-name="Path 27681" d="M287.691,188.826l-.4,3.025c1.552.683,1.795-2.876,1.795-2.876C288.732,188.087,287.691,188.826,287.691,188.826Z" transform="translate(-273.994 -188.538)" fill="#e8a78c"/>
          <path id="Path_27682" data-name="Path 27682" d="M197.662,188.975s.243,3.56,1.795,2.876l-.4-3.025S198.021,188.087,197.662,188.975Z" transform="translate(-197.662 -188.538)" fill="#e8a78c"/>
        </g>
        <path id="Path_27683" data-name="Path 27683" d="M284.329,159.9" transform="translate(-265.58 -151.892)" fill="#2d1a10"/>
        <path id="Path_27684" data-name="Path 27684" d="M168.606,256.337l-6.664,2.061a3.877,3.877,0,0,0-2.928,2.842l-1.02,4.4h26.7l-1.02-4.4a3.877,3.877,0,0,0-2.928-2.842l-6.664-2.061Z" transform="translate(-157.994 -234.016)" fill="#e8a78c"/>
        <path id="Path_27685" data-name="Path 27685" d="M168.606,256.337l-6.664,2.061a3.877,3.877,0,0,0-2.928,2.842l-1.02,4.4h26.7l-1.02-4.4a3.877,3.877,0,0,0-2.928-2.842l-6.664-2.061-2.68,5.851Z" transform="translate(-157.994 -234.016)" fill="#0bafb3"/>
        <path id="Path_27686" data-name="Path 27686" d="M277.078,155.949s1.794,10.791-1.046,14.435c0,0,2.98-2.848,1.938-13.541Z" transform="translate(-258.514 -148.526)" fill="#2f1b11"/>
        <path id="Path_27687" data-name="Path 27687" d="M203.6,155.949s-1.794,10.791,1.046,14.435c0,0-2.98-2.848-1.938-13.541Z" transform="translate(-195.881 -148.526)" fill="#2f1b11"/>
        <path id="Path_27688" data-name="Path 27688" d="M168.606,256.337l.022,9.3H157.994l1.02-4.4a3.877,3.877,0,0,1,2.928-2.842l6.664-2.061" transform="translate(-157.994 -234.016)" fill="#fff"/>
        <g id="Group_14181" data-name="Group 14181" transform="translate(7.682 22.321)">
          <path id="Path_27689" data-name="Path 27689" d="M209.756,274.784s2.423-1.765,4.717-.567c0,0-1.376-3.419-4.717.567" transform="translate(-209.756 -270.402)" fill="#96999c" style="mix-blend-mode: multiply;isolation: isolate"/>
          <path id="Path_27690" data-name="Path 27690" d="M214.673,260.5s-1.125-2.837-4.917.219l1.353-3.894,1.577-.488Z" transform="translate(-209.756 -256.337)" fill="#0b989b"/>
        </g>
        <path id="Path_27691" data-name="Path 27691" d="M266.393,256.337l.069,9.3h10.521l-1.02-4.4a3.877,3.877,0,0,0-2.928-2.842l-6.664-2.061" transform="translate(-250.287 -234.016)" fill="#fff"/>
        <g id="Group_14182" data-name="Group 14182" transform="translate(14.413 22.321)">
          <path id="Path_27692" data-name="Path 27692" d="M259.735,274.482s-2.329-1.933-4.623-.734c0,0,1.283-3.252,4.623.734" transform="translate(-255.112 -270.1)" fill="#96999c" style="mix-blend-mode: multiply;isolation: isolate"/>
          <path id="Path_27693" data-name="Path 27693" d="M255.112,259.985s.832-2.323,4.623.734l-1.353-3.894-1.577-.488Z" transform="translate(-255.112 -256.337)" fill="#0b989b"/>
        </g>
        <path id="Path_27694" data-name="Path 27694" d="M201.105,121.56a5,5,0,0,0-2.952,3.476A7.119,7.119,0,0,1,197,128.3s-.478-.268-.639.437c0,0-1.862-9.863,5.077-10.934Z" transform="translate(-190.471 -116.042)" fill="#2d1a10"/>
        <path id="Path_27695" data-name="Path 27695" d="M226.324,144.676s.909,5.639,10.126,6.509C236.45,151.185,231.666,144.613,226.324,144.676Z" transform="translate(-216.183 -138.926)" fill="#aeb0b3" style="mix-blend-mode: multiply;isolation: isolate"/>
        <path id="Path_27696" data-name="Path 27696" d="M223.514,111.51s1.279,4.16,7.671,5.636a1.975,1.975,0,0,1-.479-1.56,3.858,3.858,0,0,0,2.89,2.606,1.05,1.05,0,0,1,.471.105,14.369,14.369,0,0,0,.171-7.505s-.9-5.034-6.828-4.854c0,0-4.555-.1-4.435,3.454Z" transform="translate(-213.329 -105.932)" fill="#2d1a10"/>
        <path id="Path_27697" data-name="Path 27697" d="M223.722,109.488a3.2,3.2,0,0,1,2.2-2.12,5.6,5.6,0,0,1,3.807.206c1.3.689,1.911,2.2,2.451,3.488a17.9,17.9,0,0,1,1.407,4.756,15.867,15.867,0,0,1-.164,5.048c-.315,1.542-1.189,3.261-.836,4.857a3.98,3.98,0,0,0,2.069,2.7l.058,0a3,3,0,0,1-.608-2.6,21.483,21.483,0,0,0-.042-15.823l-.046.038c-.513-1.393-2.115-4.249-6.611-4.113,0,0-4.555-.1-4.435,3.454l.435,1.712A6.116,6.116,0,0,1,223.722,109.488Z" transform="translate(-213.329 -105.932)" fill="#aeb0b3" style="mix-blend-mode: multiply;isolation: isolate"/>
        <path id="Path_27698" data-name="Path 27698" d="M190.422,138.662l2.646-.183a2.107,2.107,0,0,0,.174-1.2,9.826,9.826,0,0,0-1.538-3.722,9.842,9.842,0,0,1-1.042-3.288,14.546,14.546,0,0,1,.77-7.3,9.874,9.874,0,0,1,1.9-3.028,19.581,19.581,0,0,1,2.515-1.989,5.461,5.461,0,0,0-3.962,2.678h0l-.019.032a6.949,6.949,0,0,0-.348.678,18.435,18.435,0,0,0-.49,14.732A3,3,0,0,1,190.422,138.662Z" transform="translate(-185 -116.162)" fill="#aeb0b3" style="mix-blend-mode: multiply;isolation: isolate"/>
        <path id="Path_27699" data-name="Path 27699" d="M201.808,124.674a8.164,8.164,0,0,0-3.037,7.191,6.858,6.858,0,0,1,1.246-3.6,10.563,10.563,0,0,0-.531,4.562s.244-4.682,3.161-5.881c0,0-1.119-.639-2.757.719C199.89,127.67,201.088,125.113,201.808,124.674Z" transform="translate(-192.701 -121.893)" fill="#fff" opacity="0.5" style="mix-blend-mode: soft-light;isolation: isolate"/>
        <path id="Path_27700" data-name="Path 27700" d="M231.873,139.112a7.86,7.86,0,0,0,5.853,4.994,6.3,6.3,0,0,1-2.926-3.064,4.5,4.5,0,0,0,2.926,1.346s-3.036-2.357-3.116-3.716a2.018,2.018,0,0,0-.3,2.717S233.411,141.229,231.873,139.112Z" transform="translate(-220.909 -133.813)" fill="#fff" opacity="0.5" style="mix-blend-mode: soft-light;isolation: isolate"/>
        <g id="Group_14183" data-name="Group 14183" transform="translate(7.177 10.777)">
          <path id="Path_27701" data-name="Path 27701" d="M214.22,178.553c-1.327-.011-2.661-.068-2.568,1.961a2.4,2.4,0,0,0,2.222,2.347,2.754,2.754,0,0,0,2.8-1.952C216.919,179.855,217.5,178.58,214.22,178.553Zm2.116,2.329a2.378,2.378,0,0,1-2.417,1.685A2.072,2.072,0,0,1,212,180.541c-.08-1.752,1.071-1.7,2.217-1.693C217.052,178.871,216.548,179.971,216.336,180.882Z" transform="translate(-210.862 -178.551)" fill="#1a1818"/>
          <path id="Path_27702" data-name="Path 27702" d="M254.106,181.433a2.754,2.754,0,0,0,2.837,1.9,2.4,2.4,0,0,0,2.176-2.389c.054-2.031-1.279-1.948-2.605-1.911C253.232,179.12,253.839,180.383,254.106,181.433Zm2.415-2.11c1.145-.031,2.3-.1,2.249,1.651a2.072,2.072,0,0,1-1.879,2.062,2.377,2.377,0,0,1-2.449-1.638C254.212,180.492,253.687,179.4,256.52,179.324Z" transform="translate(-246.829 -178.948)" fill="#1a1818"/>
          <path id="Path_27703" data-name="Path 27703" d="M245.624,182.668a1.266,1.266,0,0,1,1.373.017.8.8,0,0,1,.136-.761,2.265,2.265,0,0,0-1.653-.02A1.854,1.854,0,0,1,245.624,182.668Z" transform="translate(-239.674 -181.284)" fill="#1a1818"/>
          <path id="Path_27704" data-name="Path 27704" d="M207.844,180.211l-1.362.15-.126,1.3.982.647A2.836,2.836,0,0,1,207.844,180.211Z" transform="translate(-206.356 -179.965)" fill="#1a1818"/>
          <path id="Path_27705" data-name="Path 27705" d="M285.491,181.28l1.452.124v1.359l-1,.623A2.836,2.836,0,0,0,285.491,181.28Z" transform="translate(-273.747 -180.875)" fill="#1a1818"/>
          <path id="Path_27706" data-name="Path 27706" d="M258.627,181.021c1.145-.031,2.3-.1,2.249,1.651A2.072,2.072,0,0,1,259,184.734a2.377,2.377,0,0,1-2.449-1.638C256.319,182.19,255.794,181.1,258.627,181.021Z" transform="translate(-248.935 -180.646)" fill="#fff" opacity="0.2"/>
          <path id="Path_27707" data-name="Path 27707" d="M218.345,182.5a2.378,2.378,0,0,1-2.417,1.685,2.072,2.072,0,0,1-1.918-2.026c-.08-1.752,1.072-1.7,2.217-1.693C219.062,180.488,218.558,181.589,218.345,182.5Z" transform="translate(-212.871 -180.179)" fill="#fff" opacity="0.2"/>
        </g>
      </g>
      <g id="Group_14194" data-name="Group 14194" transform="translate(5.45 21.486)">
        <g id="Group_14185" data-name="Group 14185" transform="translate(1.16)">
          <path id="Path_27708" data-name="Path 27708" d="M269.573,251.394a2.947,2.947,0,0,0-2.426-.67h-.006v.719h.04a2.376,2.376,0,0,1,1.857.432.861.861,0,0,1,.237.649l.713.1A1.594,1.594,0,0,0,269.573,251.394Z" transform="translate(-257.553 -250.711)" fill="#0e1725"/>
          <path id="Path_27709" data-name="Path 27709" d="M206.521,250.793H206.5a2.857,2.857,0,0,0-1.942.855c-1.205,1.142-2.2,4.35-2,7.759h.719c-.239-3.693,1.033-6.525,1.75-7.217a2.146,2.146,0,0,1,1.443-.678h.045Z" transform="translate(-202.536 -250.78)" fill="#0e1725"/>
        </g>
        <g id="Group_14187" data-name="Group 14187" transform="translate(14.215 5.678)">
          <g id="Group_14186" data-name="Group 14186">
            <path id="Path_27710" data-name="Path 27710" d="M292.248,288.973a.171.171,0,0,1,.171.163,16.366,16.366,0,0,1-.128,2.538,2.433,2.433,0,0,1-.246.821,1.471,1.471,0,0,1-1.37.854.171.171,0,0,1,0-.343c1.144,0,1.271-1.31,1.275-1.365,0,0,0,0,0-.007a16.283,16.283,0,0,0,.126-2.482.171.171,0,0,1,.163-.179Z" transform="translate(-290.504 -288.973)" fill="#aeb0b3"/>
          </g>
          <path id="Path_27711" data-name="Path 27711" d="M290.675,293.349a1.471,1.471,0,0,0,1.37-.854,2.433,2.433,0,0,0,.246-.821,16.366,16.366,0,0,0,.128-2.538.171.171,0,0,0-.171-.163h-.008a.171.171,0,0,0-.163.179s0,.045,0,.123h.018a.151.151,0,0,1,.151.144,14.45,14.45,0,0,1-.113,2.24,2.145,2.145,0,0,1-.218.725,1.3,1.3,0,0,1-1.209.754.151.151,0,0,1-.139-.093.171.171,0,0,0,.1.307Z" transform="translate(-290.504 -288.973)" fill="#aeb0b3" style="mix-blend-mode: multiply;isolation: isolate"/>
        </g>
        <g id="Group_14189" data-name="Group 14189" transform="translate(10.468 5.678)">
          <g id="Group_14188" data-name="Group 14188">
            <path id="Path_27712" data-name="Path 27712" d="M265.429,288.973a.172.172,0,0,0-.171.163,16.413,16.413,0,0,0,.128,2.538,2.432,2.432,0,0,0,.247.821,1.471,1.471,0,0,0,1.37.854.171.171,0,1,0,0-.343c-1.143,0-1.27-1.31-1.275-1.365,0,0,0,0,0-.007a16.338,16.338,0,0,1-.126-2.482.171.171,0,0,0-.163-.179Z" transform="translate(-265.251 -288.973)" fill="#aeb0b3"/>
          </g>
          <path id="Path_27713" data-name="Path 27713" d="M267,293.349a1.471,1.471,0,0,1-1.37-.854,2.432,2.432,0,0,1-.247-.821,16.413,16.413,0,0,1-.128-2.538.172.172,0,0,1,.171-.163h.008a.171.171,0,0,1,.163.179s0,.045,0,.123h-.019a.152.152,0,0,0-.151.144,14.5,14.5,0,0,0,.113,2.24,2.159,2.159,0,0,0,.217.725,1.3,1.3,0,0,0,1.209.754.151.151,0,0,0,.139-.093.171.171,0,0,1-.1.307Z" transform="translate(-265.251 -288.973)" fill="#aeb0b3" style="mix-blend-mode: multiply;isolation: isolate"/>
        </g>
        <g id="Group_14190" data-name="Group 14190" transform="translate(10.304 1.65)">
          <path id="Path_27714" data-name="Path 27714" d="M267.028,261.831h.048a2.562,2.562,0,0,1,1.765.646c1.384,1.24,1.308,3.851,1.3,3.962a.327.327,0,0,1-.353.291.32.32,0,0,1-.331-.31c0-.033.068-2.469-1.11-3.523a1.834,1.834,0,0,0-1.3-.465h-.024a1.687,1.687,0,0,0-1.055.427c-.52.438-1.14,1.413-1.14,3.571a.345.345,0,0,1-.685,0c0-1.921.463-3.275,1.376-4.025A2.448,2.448,0,0,1,267.028,261.831Z" transform="translate(-264.15 -261.831)" fill="#0e1725"/>
        </g>
        <path id="Path_27715" data-name="Path 27715" d="M264.492,266.731a.326.326,0,0,0,.342-.286.282.282,0,0,1-.3-.262,4.355,4.355,0,0,1,1.2-3.507,2.132,2.132,0,0,1,1.309-.5h.042a2.232,2.232,0,0,1,1.538.563c1.205,1.08,1.139,3.355,1.136,3.452a.283.283,0,0,1-.3.253.324.324,0,0,0,.331.286.327.327,0,0,0,.353-.291c0-.111.079-2.722-1.3-3.962a2.562,2.562,0,0,0-1.765-.646h-.048a2.448,2.448,0,0,0-1.5.574c-.913.751-1.376,2.1-1.376,4.025A.324.324,0,0,0,264.492,266.731Z" transform="translate(-253.846 -260.181)" fill="#96999c" style="mix-blend-mode: multiply;isolation: isolate"/>
        <g id="Group_14191" data-name="Group 14191" transform="translate(13.712 9.569)">
          <path id="Path_27716" data-name="Path 27716" d="M287.116,315.485a.3.3,0,0,1,.295-.3l.552.048c.171.043.166.133.171.248h0c0,.124,0,.214-.186.257l-.537.038a.3.3,0,0,1-.295-.295Z" transform="translate(-287.116 -315.19)" fill="#0e1725"/>
          <path id="Path_27717" data-name="Path 27717" d="M288.255,317.179a.309.309,0,0,0-.285.137.294.294,0,0,0,.206.084l.327-.023C288.515,317.22,288.419,317.178,288.255,317.179Z" transform="translate(-287.843 -316.884)" fill="#fff" style="mix-blend-mode: soft-light;isolation: isolate"/>
          <path id="Path_27718" data-name="Path 27718" d="M287.678,315.326a.368.368,0,0,1,.335.407c.152-.046.152-.133.152-.248s0-.2-.171-.248l-.552-.048a.3.3,0,0,0-.289.239A.68.68,0,0,1,287.678,315.326Z" transform="translate(-287.148 -315.19)" fill="#6d6f72" style="mix-blend-mode: multiply;isolation: isolate"/>
        </g>
        <g id="Group_14192" data-name="Group 14192" transform="translate(12.039 9.569)">
          <path id="Path_27719" data-name="Path 27719" d="M276.855,315.485a.3.3,0,0,0-.3-.3l-.552.048c-.171.043-.166.133-.171.248h0c0,.124,0,.214.186.257l.537.038a.3.3,0,0,0,.3-.295Z" transform="translate(-275.837 -315.19)" fill="#0e1725"/>
          <path id="Path_27720" data-name="Path 27720" d="M278.494,317.179a.309.309,0,0,1,.284.137.293.293,0,0,1-.206.084l-.327-.023C278.233,317.22,278.329,317.178,278.494,317.179Z" transform="translate(-277.887 -316.884)" fill="#fff" style="mix-blend-mode: soft-light;isolation: isolate"/>
          <path id="Path_27721" data-name="Path 27721" d="M276.324,315.326a.369.369,0,0,0-.336.407c-.151-.046-.152-.133-.152-.248s0-.2.171-.248l.552-.048a.3.3,0,0,1,.29.239A.681.681,0,0,0,276.324,315.326Z" transform="translate(-275.837 -315.19)" fill="#6d6f72" style="mix-blend-mode: multiply;isolation: isolate"/>
        </g>
        <g id="Group_14193" data-name="Group 14193" transform="translate(0 7.079)">
          <path id="Path_27722" data-name="Path 27722" d="M194.718,299.958a1.548,1.548,0,1,1,1.548,1.548A1.548,1.548,0,0,1,194.718,299.958Z" transform="translate(-194.718 -298.41)" fill="#0e1725"/>
          <path id="Path_27723" data-name="Path 27723" d="M197.582,302.4a1.123,1.123,0,1,1,1.123,1.122A1.123,1.123,0,0,1,197.582,302.4Z" transform="translate(-197.157 -300.849)" fill="#96999c"/>
          <path id="Path_27724" data-name="Path 27724" d="M198.786,303.424a.944.944,0,1,1,.944.944A.944.944,0,0,1,198.786,303.424Z" transform="translate(-198.182 -301.876)" fill="#818386"/>
        </g>
      </g>
    </g>
  </g>
</svg>
