<svg xmlns="http://www.w3.org/2000/svg" width="21.567" height="37.768" viewBox="0 0 21.567 37.768">
  <g id="Skin" transform="translate(0 0)">
    <path id="Path_27980" data-name="Path 27980" d="M90.172,377.2c-5.623.043-8.894,2.025-10.74,4.289a15.2,15.2,0,0,0,10.74,4.465Z" transform="translate(-79.432 -348.185)" fill="#569dea"/>
    <path id="Path_27981" data-name="Path 27981" d="M112.364,404.042h0Z" transform="translate(-101.624 -366.274)" fill="#587ccc"/>
    <path id="Path_27982" data-name="Path 27982" d="M112.408,377.2h-.044v8.754h.044a15.2,15.2,0,0,0,10.784-4.465C121.342,379.217,118.058,377.229,112.408,377.2Z" transform="translate(-101.624 -348.184)" fill="#587ccc"/>
    <path id="Path_27983" data-name="Path 27983" d="M106.405,352.375c-.02-3.068-1.873-5.555-4.183-5.555-.019,0-.027.091-.027.091v-.09c-2.33,0-4.183,2.487-4.2,5.555.4,4.41-.9,5.092-.69,5.156,1.248,3.274,4.478,3.818,4.9,4,.418-.182,3.649-.726,4.9-4C107.3,357.467,106.007,356.785,106.405,352.375Z" transform="translate(-91.459 -327.713)" fill="#ffc476"/>
    <path id="Path_27984" data-name="Path 27984" d="M103.807,367.147c-.646,0-2.272-.129-4.216-2.159a5.714,5.714,0,0,0,4.2,2.513,5.714,5.714,0,0,0,4.216-2.513C106.064,367.017,104.439,367.148,103.807,367.147Z" transform="translate(-93.017 -339.956)" fill="#e29855"/>
    <path id="Path_27985" data-name="Path 27985" d="M102.682,321.393a.967.967,0,0,0-.081.057,3.591,3.591,0,0,0-.583.568c.154-.265.193-.33.313-.572.041-.083.132-.37.132-.37,1.07-5.574-2.871-10.092-7.787-10.131-.094,0-.186.007-.279.011s-.185-.009-.279-.011c-4.916.039-8.857,4.557-7.787,10.131l.075.256s.217.42.371.685a3.59,3.59,0,0,0-.583-.568c-.028-.022-.055-.041-.081-.057-.836-.523-.455,1.594.274,3.064.43.868.6,1.151.9,1.12.344-.035.316-.578.316-.578s.945,1.529,1.579,2.38c2.379,3.187,4.476,3.365,5.215,3.363s2.837-.176,5.215-3.363c.633-.85,1.58-2.38,1.58-2.38s-.029.543.315.578c.3.031.471-.252.9-1.12C103.136,322.988,103.517,320.871,102.682,321.393Z" transform="translate(-83.615 -303.539)" fill="#ffc476"/>
    <path id="Path_27986" data-name="Path 27986" d="M102.342,299.5a8.126,8.126,0,0,0-5.23-6.392,3.227,3.227,0,0,0,.233-1.2,4.274,4.274,0,0,0-8.464,0,3.258,3.258,0,0,0,.3,1.35,7.529,7.529,0,0,0-5.1,6.22,10.787,10.787,0,0,0,.913,5.877,18.226,18.226,0,0,1,.78,1.865s.349-3.873,2.606-6.106a10,10,0,0,1,7.423-3.152c.35.372,1.495,1.149,1.9,1.524a10.314,10.314,0,0,1,3.127,7.638,9.386,9.386,0,0,1,.705-1.5A10.158,10.158,0,0,0,102.342,299.5Z" transform="translate(-82.501 -288.23)"/>
    <path id="Path_27987" data-name="Path 27987" d="M95.577,295.663a14.881,14.881,0,0,0-3.138-7.29A3.878,3.878,0,0,0,88.88,292a3.263,3.263,0,0,0,.295,1.35,7.531,7.531,0,0,0-5.1,6.22,10.8,10.8,0,0,0,.913,5.877c.079.156.158.322.232.489.3.681.548,1.377.548,1.377s.349-3.873,2.606-6.106a12.4,12.4,0,0,1,7.423-3.152A19.235,19.235,0,0,0,95.577,295.663Z" transform="translate(-82.501 -288.326)" fill="#494949"/>
    <path id="Path_27988" data-name="Path 27988" d="M93.031,301.379a10.367,10.367,0,0,0-5.259,1.9,8.706,8.706,0,0,0-2.327,11.82s.192-3.272,3.856-6.507c2.166-1.913,4.329-2.21,6.47-3.681A9.644,9.644,0,0,1,93.031,301.379Z" transform="translate(-82.558 -297.091)" fill="#f5f5f5"/>
    <path id="Path_27989" data-name="Path 27989" d="M117.7,304.822a9.68,9.68,0,0,0-2.348-2.158,8.422,8.422,0,0,0-3.9-1.3,7.761,7.761,0,0,0-1.789.052,26.475,26.475,0,0,0,3.353,3.464,13.484,13.484,0,0,1,3.13,3.251A14.844,14.844,0,0,1,118.6,314.9,8.4,8.4,0,0,0,117.7,304.822Z" transform="translate(-99.806 -297.065)" fill="#e4e3e2"/>
    <path id="Path_27990" data-name="Path 27990" d="M110.9,350.417a1.07,1.07,0,0,1-.572.2.681.681,0,0,1-.16-.017.834.834,0,0,1-.2.15.721.721,0,0,1-.671,0,.835.835,0,0,1-.2-.15.69.69,0,0,1-.161.017,1.068,1.068,0,0,1-.572-.2l-.052-.038c.02.024.039.05.058.077a.928.928,0,0,0,.7.384.672.672,0,0,0,1.12,0,.926.926,0,0,0,.7-.384c.02-.027.039-.053.059-.077Z" transform="translate(-98.895 -330.111)" fill="#e29855"/>
    <path id="Path_27991" data-name="Path 27991" d="M107.269,360.133c-1.386,0-2.465-.067-2.465-.067a3.709,3.709,0,0,0,2.465,1.051,4.053,4.053,0,0,0,2.552-1.051S108.655,360.133,107.269,360.133Z" transform="translate(-96.53 -336.639)" fill="#ec6f4d"/>
    <path id="Path_27992" data-name="Path 27992" d="M109.821,358.538a15.4,15.4,0,0,1-1.533-.652.778.778,0,0,0-1.019.245.778.778,0,0,0-1.019-.245c-.972.464-1.446.652-1.446.652s1.08.067,2.465.067S109.821,358.538,109.821,358.538Z" transform="translate(-96.53 -335.111)" fill="#d36345"/>
    <path id="Path_27993" data-name="Path 27993" d="M99.036,337.941a3.337,3.337,0,0,0-2.191-1.665,3.029,3.029,0,0,0-2.624.982l.027,0-.027,0a3.028,3.028,0,0,0,2.246,1.674,3.346,3.346,0,0,0,2.568-.99l-.027-.007Z" transform="translate(-89.399 -320.585)" fill="#ffe4c1"/>
    <path id="Path_27994" data-name="Path 27994" d="M100.417,338.753a.839.839,0,1,1-.713-.948A.839.839,0,0,1,100.417,338.753Z" transform="translate(-92.448 -321.632)" fill="#587ccc"/>
    <path id="Path_27995" data-name="Path 27995" d="M100.906,339.627a.385.385,0,1,1-.327-.435A.386.386,0,0,1,100.906,339.627Z" transform="translate(-93.386 -322.57)" fill="#4e3c34"/>
    <path id="Path_27996" data-name="Path 27996" d="M100.275,338.9a.326.326,0,1,1-.277-.369A.327.327,0,0,1,100.275,338.9Z" transform="translate(-93.041 -322.122)" fill="#fff" opacity="0.5"/>
    <path id="Path_27997" data-name="Path 27997" d="M97.95,337.3a2.685,2.685,0,0,1,1.728,1.03,2.482,2.482,0,0,0-1.695-1.288,2.24,2.24,0,0,0-1.983.712A2.5,2.5,0,0,1,97.95,337.3Z" transform="translate(-90.597 -321.109)" fill="#4e3c34"/>
    <path id="Path_27998" data-name="Path 27998" d="M115.742,337.941a3.341,3.341,0,0,1,2.191-1.665,3.029,3.029,0,0,1,2.624.982l-.027,0,.027,0a3.03,3.03,0,0,1-2.247,1.674,3.349,3.349,0,0,1-2.568-.99l.028-.007Z" transform="translate(-103.901 -320.585)" fill="#ffe4c1"/>
    <path id="Path_27999" data-name="Path 27999" d="M120.843,338.753a.839.839,0,1,0,.713-.948A.839.839,0,0,0,120.843,338.753Z" transform="translate(-107.333 -321.632)" fill="#587ccc"/>
    <path id="Path_28000" data-name="Path 28000" d="M122.231,339.627a.385.385,0,1,0,.327-.435A.385.385,0,0,0,122.231,339.627Z" transform="translate(-108.271 -322.57)" fill="#4e3c34"/>
    <path id="Path_28001" data-name="Path 28001" d="M123.105,338.9a.326.326,0,1,0,.277-.369A.327.327,0,0,0,123.105,338.9Z" transform="translate(-108.861 -322.122)" fill="#fff" opacity="0.5"/>
    <path id="Path_28002" data-name="Path 28002" d="M119.178,337.3a2.688,2.688,0,0,0-1.728,1.03,2.484,2.484,0,0,1,1.695-1.288,2.239,2.239,0,0,1,1.983.712A2.5,2.5,0,0,0,119.178,337.3Z" transform="translate(-105.052 -321.109)" fill="#4e3c34"/>
    <path id="Path_28003" data-name="Path 28003" d="M121.618,332.679l-3.591-.581a3.429,3.429,0,0,1,3.591.581Z" transform="translate(-105.441 -317.603)" fill="#a87149"/>
    <path id="Path_28004" data-name="Path 28004" d="M95.691,332.679l3.59-.581a3.428,3.428,0,0,0-3.59.581Z" transform="translate(-90.389 -317.603)" fill="#a87149"/>
    <path id="Path_28005" data-name="Path 28005" d="M105.351,351.7a.255.255,0,1,1-.18-.313A.256.256,0,0,1,105.351,351.7Z" transform="translate(-96.561 -330.784)" fill="#ec6f4d"/>
    <path id="Path_28006" data-name="Path 28006" d="M105.507,351.954a.114.114,0,1,1-.081-.14A.115.115,0,0,1,105.507,351.954Z" transform="translate(-96.852 -331.076)" fill="#d36345"/>
    <path id="Path_28007" data-name="Path 28007" d="M100.981,355.97a.307.307,0,1,1-.216-.377A.307.307,0,0,1,100.981,355.97Z" transform="translate(-93.546 -333.617)" fill="#ec6f4d"/>
    <path id="Path_28008" data-name="Path 28008" d="M101.168,356.276a.138.138,0,1,1-.1-.169A.138.138,0,0,1,101.168,356.276Z" transform="translate(-93.897 -333.968)" fill="#d36345"/>
    <path id="Path_28009" data-name="Path 28009" d="M98.654,345.7a.3.3,0,1,1-.209-.364A.3.3,0,0,1,98.654,345.7Z" transform="translate(-91.992 -326.708)" fill="#ec6f4d"/>
    <path id="Path_28010" data-name="Path 28010" d="M98.835,346a.132.132,0,1,1-.093-.163A.132.132,0,0,1,98.835,346Z" transform="translate(-92.332 -327.047)" fill="#d36345"/>
    <path id="Path_28011" data-name="Path 28011" d="M94.973,349.646a.247.247,0,1,1-.174-.3A.246.246,0,0,1,94.973,349.646Z" transform="translate(-89.578 -329.408)" fill="#ec6f4d"/>
    <path id="Path_28012" data-name="Path 28012" d="M95.123,349.893a.11.11,0,1,1-.078-.135A.111.111,0,0,1,95.123,349.893Z" transform="translate(-89.86 -329.69)" fill="#d36345"/>
    <path id="Path_28013" data-name="Path 28013" d="M123.069,357.314a.432.432,0,1,0-.267-.549A.433.433,0,0,0,123.069,357.314Z" transform="translate(-108.643 -334.219)" fill="#ec6f4d"/>
    <path id="Path_28014" data-name="Path 28014" d="M123.64,357.58a.192.192,0,0,0,.246-.118.193.193,0,0,0-.366-.126A.191.191,0,0,0,123.64,357.58Z" transform="translate(-109.136 -334.712)" fill="#d36345"/>
    <path id="Path_28015" data-name="Path 28015" d="M129.843,351.148a.278.278,0,1,0-.171-.354A.278.278,0,0,0,129.843,351.148Z" transform="translate(-113.277 -330.266)" fill="#ec6f4d"/>
    <path id="Path_28016" data-name="Path 28016" d="M130.209,351.319a.124.124,0,1,0,.081-.234.123.123,0,0,0-.158.076A.125.125,0,0,0,130.209,351.319Z" transform="translate(-113.593 -330.582)" fill="#d36345"/>
    <path id="Path_28017" data-name="Path 28017" d="M117.462,347.658a.278.278,0,1,0-.172-.354A.28.28,0,0,0,117.462,347.658Z" transform="translate(-104.934 -327.913)" fill="#ec6f4d"/>
    <path id="Path_28018" data-name="Path 28018" d="M117.829,347.83a.125.125,0,1,0-.077-.158A.126.126,0,0,0,117.829,347.83Z" transform="translate(-105.251 -328.23)" fill="#d36345"/>
    <path id="Path_28019" data-name="Path 28019" d="M125.82,346.266a.407.407,0,1,0-.252-.517A.406.406,0,0,0,125.82,346.266Z" transform="translate(-110.507 -326.806)" fill="#ec6f4d"/>
    <path id="Path_28020" data-name="Path 28020" d="M126.357,346.52a.183.183,0,0,0,.232-.113.182.182,0,0,0-.344-.118A.183.183,0,0,0,126.357,346.52Z" transform="translate(-110.972 -327.272)" fill="#d36345"/>
    <path id="Path_28021" data-name="Path 28021" d="M98.311,384.659a10.7,10.7,0,0,1-5.669-5.028,6.363,6.363,0,0,1,1.6-.541,8.281,8.281,0,0,0,4.836,4.188Z" transform="translate(-88.334 -349.459)" fill="#f5f5f5"/>
    <path id="Path_28022" data-name="Path 28022" d="M113.127,384.6a10.8,10.8,0,0,0,5.694-5.051,6.4,6.4,0,0,0-1.639-.545,8.293,8.293,0,0,1-4.818,4.216Z" transform="translate(-101.624 -349.401)" fill="#e4e3e2"/>
    <path id="Path_28023" data-name="Path 28023" d="M99.521,350.55a.62.62,0,1,1-.62-.62A.619.619,0,0,1,99.521,350.55Z" transform="translate(-92.135 -329.809)" fill="#ff9367"/>
    <path id="Path_28024" data-name="Path 28024" d="M99.792,351.224a.354.354,0,1,1-.248-.433A.353.353,0,0,1,99.792,351.224Z" transform="translate(-92.684 -330.38)" fill="#ec6f4d"/>
    <path id="Path_28025" data-name="Path 28025" d="M100.007,351.577a.158.158,0,1,1-.111-.195A.158.158,0,0,1,100.007,351.577Z" transform="translate(-93.088 -330.784)" fill="#d36345"/>
    <path id="Path_28026" data-name="Path 28026" d="M121.98,349.371a1.052,1.052,0,1,1-1.052-1.053A1.052,1.052,0,0,1,121.98,349.371Z" transform="translate(-106.687 -328.723)" fill="#ff9367"/>
    <path id="Path_28027" data-name="Path 28027" d="M122.645,350.8a.435.435,0,1,1-.306-.534A.435.435,0,0,1,122.645,350.8Z" transform="translate(-107.977 -330.027)" fill="#ec6f4d"/>
    <path id="Path_28028" data-name="Path 28028" d="M122.909,351.235a.194.194,0,1,1-.136-.239A.194.194,0,0,1,122.909,351.235Z" transform="translate(-108.473 -330.523)" fill="#d36345"/>
  </g>
</svg>
