<svg xmlns="http://www.w3.org/2000/svg" width="24.868" height="37.275" viewBox="0 0 24.868 37.275">
  <g id="Women" transform="translate(0)">
    <g id="Group_14275" data-name="Group 14275" transform="translate(0)">
      <g id="_7" data-name="7">
        <g id="Group_14274" data-name="Group 14274">
          <g id="Group_14270" data-name="Group 14270" transform="translate(5.763)">
            <path id="Path_27872" data-name="Path 27872" d="M45.885,255.61a7.084,7.084,0,0,0-1-.057,5.544,5.544,0,0,0-5.67,4.908,7.242,7.242,0,0,0-.19,2.193c.13,1.106.955,2.9.426,3.941a1.7,1.7,0,0,1-1.277.9c.788,1.159,1.965,1.264,3.214,1.488a20.746,20.746,0,0,0,3.5.405c.031,0,.059,0,.091,0,2.191.007,5.93.2,7.26-2.039-2.236-.323-1.346-3.77-1.443-5.224a9.4,9.4,0,0,0-1.059-4.092A5,5,0,0,0,45.885,255.61Z" transform="translate(-38.173 -255.553)" fill="#393c42"/>
            <g id="Group_14263" data-name="Group 14263" transform="translate(1.596 1.209)">
              <g id="Group_14262" data-name="Group 14262">
                <g id="Group_14261" data-name="Group 14261" transform="translate(0 9.433)">
                  <path id="Path_27873" data-name="Path 27873" d="M43.371,271.157a6.472,6.472,0,0,1-.258,1.918c-.432,1.329-1.427,1.58-2.6,2a23.459,23.459,0,0,0,2.036,1.859A5.351,5.351,0,0,0,44.875,278a3.624,3.624,0,0,0,.793.037v-6.882Z" transform="translate(-40.513 -271.157)" fill="#e7b088"/>
                </g>
                <path id="Path_27874" data-name="Path 27874" d="M42.305,259.039a5.14,5.14,0,0,0-.84,3.456c-.61.023-.683.786-.443,1.211.123.216.306.4.42.618.194.375.253.92.777.978a.759.759,0,0,0,.131,0c.759,1.3,2.108,2.8,3.44,2.76V257.329A4.261,4.261,0,0,0,42.305,259.039Z" transform="translate(-40.634 -257.326)" fill="#f2c4a5"/>
              </g>
            </g>
            <g id="Group_14267" data-name="Group 14267" transform="translate(4.498 1.209)">
              <g id="Group_14266" data-name="Group 14266">
                <g id="Group_14264" data-name="Group 14264" transform="translate(2.253 9.433)">
                  <path id="Path_27875" data-name="Path 27875" d="M50.626,273.075a6.494,6.494,0,0,1-.258-1.918h-2.3v6.882a3.62,3.62,0,0,0,.793-.037,5.354,5.354,0,0,0,2.326-1.067,23.454,23.454,0,0,0,2.035-1.859C52.053,274.655,51.058,274.4,50.626,273.075Z" transform="translate(-48.071 -271.157)" fill="#dda783"/>
                </g>
                <path id="Path_27876" data-name="Path 27876" d="M52.382,262.511a5.14,5.14,0,0,0-.839-3.472,4.26,4.26,0,0,0-3.485-1.709l-.031,10.731c1.331.04,2.7-1.458,3.467-2.76a.194.194,0,0,0,.02,0c.479-.053.581-.566.773-.919C52.511,263.97,53.2,262.687,52.382,262.511Z" transform="translate(-45.805 -257.326)" fill="#e7b088"/>
                <g id="Group_14265" data-name="Group 14265" transform="translate(0 33.318)">
                  <path id="Path_27877" data-name="Path 27877" d="M44.97,306.415c-.081-.087-.156-.179-.2-.239Z" transform="translate(-44.768 -306.176)" fill="#e7b088"/>
                </g>
              </g>
            </g>
            <g id="Group_14269" data-name="Group 14269" transform="translate(2.278 0.848)">
              <g id="Group_14268" data-name="Group 14268" transform="translate(4.434 2.94)">
                <path id="Path_27878" data-name="Path 27878" d="M48.014,261.4c.143.041.286.082.445.112a5.028,5.028,0,0,1-.445-.4Z" transform="translate(-48.014 -261.108)" fill="#393c42"/>
              </g>
              <path id="Path_27879" data-name="Path 27879" d="M51.378,261.249a7.369,7.369,0,0,0-.794-2.176,4.434,4.434,0,0,0-.454-.926,4.058,4.058,0,0,0-.742-.473,5.256,5.256,0,0,0-1.481-.871c-.077-.013-1.029,0-1.96.03a12.744,12.744,0,0,0-1.829.121,31.241,31.241,0,0,1-2.6,1.769v1.7c0,.4,0,.794,0,1.19.006.544.272.741.62,1.153-.183-1.2.513-2.284.962-3.372-.165.4,2.375.614,2.618.636,1.915.172,2.946,1.576,3.766,3.241-.016-.349-.031-.7-.047-1.047a5.753,5.753,0,0,1,1.4,5.084c.078-.353.547-.778.681-1.164a4.092,4.092,0,0,0,.166-1.609A22.978,22.978,0,0,0,51.378,261.249Z" transform="translate(-41.512 -256.797)" fill="#393c42"/>
            </g>
          </g>
          <g id="Group_14271" data-name="Group 14271" transform="translate(8.056 9.19)">
            <path id="Path_27880" data-name="Path 27880" d="M42.052,269.028a.517.517,0,1,0,.518.517A.517.517,0,0,0,42.052,269.028Z" transform="translate(-41.535 -269.028)" fill="#e83a5c"/>
          </g>
          <g id="Group_14272" data-name="Group 14272" transform="translate(15.717 9.19)">
            <path id="Path_27881" data-name="Path 27881" d="M53.286,269.028a.517.517,0,1,0,.518.517A.518.518,0,0,0,53.286,269.028Z" transform="translate(-52.768 -269.028)" fill="#e83a5c"/>
          </g>
          <path id="Path_27882" data-name="Path 27882" d="M51.633,293.513a6.947,6.947,0,0,0-.588-5.093,23.693,23.693,0,0,0-2.04-2.5c-.636-.763-.467-1.644-.483-2.612a25.592,25.592,0,0,0,1.816,1.953s1-.758,1.394-.976c.758-.424,1.3-.814,2.06-1.23-1.652-3.873-2.123-4.206-2.195-4.313-.872-1.307-1.333-1.515-3.935-2.5a5.909,5.909,0,0,1-4.517,2.879,6.01,6.01,0,0,1-4.482-2.7c-.046-.063-.092-.121-.138-.184-2.6.987-3.064,1.194-3.936,2.5a3.5,3.5,0,0,0-.172.338,38.377,38.377,0,0,0-2,4.148c.132.07.276.138.419.213,1.222.625,3.472,1.87,3.472,1.87a9.513,9.513,0,0,0,1.227-1.183,3.252,3.252,0,0,1,.462.752c.074.143-2.363,3.63-2.53,4.191a10.675,10.675,0,0,0-.493,4.634,6.485,6.485,0,0,0,2.757,4.024,10.09,10.09,0,0,0,4.685,1.608c2.658.28,5.571-.318,7.39-2.277A7.746,7.746,0,0,0,51.633,293.513Z" transform="translate(-30.581 -262.132)" fill="#e83a5c"/>
          <g id="Group_14273" data-name="Group 14273" transform="translate(0 21.009)">
            <path id="Path_27883" data-name="Path 27883" d="M40.49,301.822l-1.6-.029-1.584-.636a7.82,7.82,0,0,1-1.4-1.779,7.872,7.872,0,0,0-1.423-1.457,41.568,41.568,0,0,1-4.274-4.6,4.727,4.727,0,0,1-.459-1.188c-.1-.34.117-.648.241-.945.148-.352.269-.716.412-1.071.3-.752.64-1.49,1-2.219.2-.407.4-.8.608-1.17l3.46,1.9c-.843,1.107-1.687,2.208-2.525,3.322a5.043,5.043,0,0,1,.792,1.044c.276.516.517,1.039.832,1.544a18.936,18.936,0,0,0,2.341,3.017c.614.735,2.3,1.314,2.364,1.451l.958,1.3s-.012.878-1.2-.43c-.005-.006-.522-.057-.27.361a1.516,1.516,0,0,0,.58.5c.476.218.815.224,1.039.453C40.485,301.294,40.605,301.329,40.49,301.822Z" transform="translate(-29.723 -286.474)" fill="#e7b088"/>
            <path id="Path_27884" data-name="Path 27884" d="M61.675,291.073a3.63,3.63,0,0,1-.316,1.232,42.062,42.062,0,0,1-3.672,5.089,7.61,7.61,0,0,0-1.233,1.624,8.182,8.182,0,0,1-1.177,1.94l-1.492.826-1.584.224c-.178-.477-.063-.522.029-.643.2-.258.533-.3.975-.579a1.437,1.437,0,0,0,.511-.567c.207-.448-.3-.334-.31-.322-1.016,1.44-1.136.574-1.136.574l.792-1.406c.052-.149,1.646-.923,2.168-1.733a18.746,18.746,0,0,0,1.946-3.281c.252-.539.43-1.091.642-1.636a5.484,5.484,0,0,1,.775-1.29c-.745-.981-1.386-1.851-2.138-2.833l3.445-1.936s.923,2.209,1.373,3.293c.171.411.5.829.424,1.288C61.689,290.982,61.682,291.027,61.675,291.073Z" transform="translate(-36.841 -286.356)" fill="#dda783"/>
          </g>
        </g>
      </g>
    </g>
    <path id="Path_27885" data-name="Path 27885" d="M46.074,269.787h2.779S47.729,271.992,46.074,269.787Z" transform="translate(-34.922 -260.079)" fill="#fff"/>
  </g>
</svg>
